<svg width="77" height="82" viewBox="0 0 77 82" fill="none" xmlns="http://www.w3.org/2000/svg">
<path fill-rule="evenodd" clip-rule="evenodd" d="M69.696 0.00152488C71.3695 -0.0114479 72.8741 1.01914 73.4666 2.5843C75.8233 8.80958 77.9151 19.0061 73.7754 28.0773C69.722 36.9596 60.3804 43.4151 43.4954 44.7682V48.1111C43.5616 49.3445 43.5568 50.5167 43.4954 51.6008V77.7243C43.4954 79.9326 41.7051 81.7229 39.4968 81.7229C37.2884 81.7229 35.4982 79.9326 35.4982 77.7243V63.2298C19.5018 63.7087 9.67355 58.2079 4.47598 49.8608C-0.923676 41.1892 -0.60077 30.5355 1.12666 23.5349C1.5122 21.9725 2.79686 20.7934 4.38658 20.543C19.2188 18.2064 29.2534 21.9088 35.4982 28.4719V24.4928C35.4982 24.4423 35.4991 24.3917 35.501 24.3411C35.6518 20.3708 36.9898 14.2103 42.2154 9.01724C47.4741 3.79136 56.1029 0.106898 69.696 0.00152488ZM43.4954 36.7448C58.1088 35.4479 64.0958 30.0253 66.5 24.7571C68.8949 19.5093 68.3451 13.196 66.8739 8.08409C56.5373 8.62985 50.9244 11.6371 47.8526 14.6898C44.5039 18.0176 43.6078 21.9619 43.4954 24.5735V36.7448ZM35.4982 48.3057C35.2267 43.9417 33.7905 38.7536 30.4002 34.7587C26.7141 30.4153 20.1659 26.8404 8.368 28.0816C7.5241 33.5786 7.97452 40.3498 11.2647 45.6336C14.576 50.9515 21.3939 55.7244 35.4982 55.2306V48.3057Z" fill="url(#paint0_linear_338_4)"/>
<defs>
<linearGradient id="paint0_linear_338_4" x1="74.2473" y1="40.8621" x2="1.89126" y2="40.8621" gradientUnits="userSpaceOnUse">
<stop stop-color="#02C8C8"/>
<stop offset="1" stop-color="#0EF069"/>
</linearGradient>
</defs>
</svg>
