<svg width="50" height="50" viewBox="0 0 50 50" fill="none" xmlns="http://www.w3.org/2000/svg">
<path d="M4.10571 24.6197C4.10687 29.5044 5.85027 34.2286 9.02256 37.9431C12.1948 41.6576 16.588 44.1188 21.4124 44.8843V30.5479H16.2083V24.6197H21.4185V20.1069C21.3035 19.0506 21.4224 17.982 21.7669 16.9769C22.1113 15.9719 22.6729 15.055 23.4116 14.2913C24.1504 13.5277 25.0482 12.9361 26.0413 12.5586C27.0345 12.1811 28.0986 12.0268 29.158 12.1069C30.6965 12.1315 32.2349 12.2689 33.7529 12.5171V17.5612H31.1601C30.7194 17.5035 30.2714 17.5456 29.8491 17.6843C29.4269 17.823 29.0412 18.0548 28.7206 18.3626C28.4 18.6704 28.1527 19.0463 27.9969 19.4625C27.8411 19.8788 27.7809 20.3247 27.8206 20.7674V24.6197H33.5047L32.596 30.5499H27.8206V44.8843C31.6926 44.2724 35.3082 42.5638 38.2394 39.9608C41.1705 37.3577 43.2944 33.9694 44.3596 30.1968C45.4248 26.4241 45.3866 22.4253 44.2497 18.6737C43.1128 14.9221 40.9247 11.5748 37.9444 9.02818C34.9642 6.48154 31.3166 4.84219 27.4336 4.30421C23.5506 3.76623 19.5948 4.35215 16.0344 5.99261C12.4741 7.63308 9.45836 10.2594 7.34429 13.5606C5.23021 16.8618 4.10634 20.6996 4.10571 24.6197Z" fill="white"/>
</svg>
