<svg width="50" height="50" viewBox="0 0 50 50" fill="none" xmlns="http://www.w3.org/2000/svg">
<path d="M41.0774 6.15381H9.69281C8.15435 6.15381 6.92358 7.38458 6.92358 8.76919V40.3077C6.92358 41.6923 8.15435 42.923 9.69281 42.923H41.0774C42.6159 42.923 43.8467 41.6923 43.8467 40.3077V8.76919C43.8467 7.38458 42.6159 6.15381 41.0774 6.15381ZM17.8467 37.5384H12.462V20H17.8467V37.5384ZM15.2313 17.5384C13.539 17.5384 12.0005 16.1538 12.0005 14.3077C12.0005 12.4615 13.3851 11.0769 15.2313 11.0769C16.9236 11.0769 18.462 12.4615 18.462 14.3077C18.462 16.1538 16.9236 17.5384 15.2313 17.5384ZM38.462 37.3846H33.0774V28.7692C33.0774 26.7692 33.0774 24 30.1544 24C27.2313 24 26.9236 26.3077 26.9236 28.4615V37.2307H21.539V20H26.6159V22.3077H26.7697C27.539 20.923 29.3851 19.3846 32.0005 19.3846C37.539 19.3846 38.6159 23.0769 38.6159 27.8461V37.3846H38.462Z" fill="white"/>
</svg>
