<svg width="51" height="50" viewBox="0 0 51 50" fill="none" xmlns="http://www.w3.org/2000/svg">
<path d="M40.452 10.9329C37.7238 9.66109 34.7699 8.73802 31.693 8.20468C31.666 8.20382 31.6392 8.20888 31.6144 8.21952C31.5896 8.23015 31.5674 8.24609 31.5494 8.26622C31.1802 8.94315 30.7494 9.8252 30.4622 10.5021C27.1986 10.0098 23.8797 10.0098 20.6161 10.5021C20.3289 9.80468 19.8981 8.94315 19.5084 8.26622C19.4879 8.2252 19.4263 8.20468 19.3648 8.20468C16.2879 8.73802 13.3545 9.66109 10.6058 10.9329C10.5853 10.9329 10.5648 10.9534 10.5443 10.9739C4.96479 19.3226 3.42633 27.4457 4.1853 35.4867C4.1853 35.5278 4.20582 35.5688 4.24684 35.5893C7.93915 38.297 11.4879 39.938 14.9956 41.0252C15.0571 41.0457 15.1186 41.0252 15.1392 40.9842C15.9597 39.856 16.6981 38.6662 17.334 37.4149C17.375 37.3329 17.334 37.2508 17.252 37.2303C16.0827 36.779 14.975 36.2457 13.8879 35.6303C13.8058 35.5893 13.8058 35.4662 13.8674 35.4047C14.093 35.2406 14.3186 35.056 14.5443 34.8919C14.5853 34.8508 14.6468 34.8508 14.6879 34.8714C21.7443 38.0919 29.3545 38.0919 36.3289 34.8714C36.3699 34.8508 36.4315 34.8508 36.4725 34.8919C36.6981 35.0765 36.9238 35.2406 37.1494 35.4252C37.2315 35.4867 37.2315 35.6098 37.1289 35.6508C36.0622 36.2867 34.934 36.7996 33.7648 37.2508C33.6827 37.2714 33.6622 37.3739 33.6827 37.4355C34.3391 38.6867 35.0776 39.8765 35.8776 41.0047C35.9392 41.0252 36.0007 41.0457 36.0622 41.0252C39.5904 39.938 43.1391 38.297 46.8315 35.5893C46.8725 35.5688 46.893 35.5278 46.893 35.4867C47.7956 26.1944 45.3956 18.1329 40.534 10.9739C40.5135 10.9534 40.493 10.9329 40.452 10.9329ZM18.4007 30.5842C16.2879 30.5842 14.5238 28.6355 14.5238 26.2355C14.5238 23.8355 16.2468 21.8867 18.4007 21.8867C20.575 21.8867 22.2981 23.856 22.2776 26.2355C22.2776 28.6355 20.5545 30.5842 18.4007 30.5842ZM32.6981 30.5842C30.5853 30.5842 28.8212 28.6355 28.8212 26.2355C28.8212 23.8355 30.5443 21.8867 32.6981 21.8867C34.8725 21.8867 36.5956 23.856 36.575 26.2355C36.575 28.6355 34.8725 30.5842 32.6981 30.5842Z" fill="white"/>
</svg>
