<svg width="51" height="50" viewBox="0 0 51 50" fill="none" xmlns="http://www.w3.org/2000/svg">
<path d="M25.4597 15.1323C22.9441 15.1323 20.5315 16.1316 18.7527 17.9105C16.9739 19.6893 15.9745 22.1018 15.9745 24.6175C15.9745 27.1331 16.9739 29.5456 18.7527 31.3244C20.5315 33.1033 22.9441 34.1026 25.4597 34.1026C27.9753 34.1026 30.3879 33.1033 32.1667 31.3244C33.9455 29.5456 34.9448 27.1331 34.9448 24.6175C34.9448 22.1018 33.9455 19.6893 32.1667 17.9105C30.3879 16.1316 27.9753 15.1323 25.4597 15.1323ZM25.4597 30.7775C23.8254 30.7775 22.2581 30.1282 21.1024 28.9726C19.9468 27.817 19.2976 26.2497 19.2976 24.6154C19.2976 22.9811 19.9468 21.4138 21.1024 20.2582C22.2581 19.1026 23.8254 18.4534 25.4597 18.4534C27.094 18.4534 28.6613 19.1026 29.8169 20.2582C30.9725 21.4138 31.6217 22.9811 31.6217 24.6154C31.6217 26.2497 30.9725 27.817 29.8169 28.9726C28.6613 30.1282 27.094 30.7775 25.4597 30.7775Z" fill="white"/>
<path d="M35.3188 16.9946C36.5401 16.9946 37.5301 16.0046 37.5301 14.7833C37.5301 13.562 36.5401 12.572 35.3188 12.572C34.0976 12.572 33.1075 13.562 33.1075 14.7833C33.1075 16.0046 34.0976 16.9946 35.3188 16.9946Z" fill="white"/>
<path d="M42.9658 12.5356C42.4909 11.3093 41.7652 10.1957 40.8352 9.26597C39.9051 8.33628 38.7912 7.61102 37.5648 7.13661C36.1296 6.59786 34.6133 6.30654 33.0807 6.27508C31.1053 6.18892 30.4796 6.16431 25.4704 6.16431C20.4612 6.16431 19.8191 6.16431 17.8601 6.27508C16.3286 6.30494 14.8135 6.59631 13.3801 7.13661C12.1533 7.61046 11.0391 8.33553 10.109 9.26529C9.17892 10.195 8.45343 11.309 7.97912 12.5356C7.44026 13.9707 7.14961 15.487 7.11963 17.0197C7.03143 18.993 7.00476 19.6187 7.00476 24.6299C7.00476 29.6392 7.00476 30.2771 7.11963 32.2402C7.1504 33.7746 7.43963 35.2884 7.97912 36.7264C8.45477 37.9525 9.18096 39.066 10.1113 39.9956C11.0416 40.9253 12.1557 41.6506 13.3822 42.1253C14.8128 42.6857 16.3286 42.9979 17.8642 43.0484C19.8396 43.1346 20.4653 43.1612 25.4745 43.1612C30.4837 43.1612 31.1258 43.1612 33.0848 43.0484C34.6173 43.0172 36.1334 42.7266 37.5689 42.1889C38.795 41.7134 39.9086 40.9875 40.8386 40.0576C41.7685 39.1276 42.4944 38.0141 42.9699 36.7879C43.5094 35.352 43.7986 33.8382 43.8294 32.3038C43.9176 30.3305 43.9442 29.7048 43.9442 24.6935C43.9442 19.6823 43.9442 19.0464 43.8294 17.0833C43.8055 15.529 43.5133 13.9905 42.9658 12.5356ZM40.4673 32.0884C40.4541 33.2706 40.2383 34.4417 39.8294 35.551C39.5213 36.3486 39.0497 37.073 38.4449 37.6775C37.8401 38.282 37.1154 38.7531 36.3176 39.0607C35.2206 39.4678 34.0619 39.6836 32.8919 39.6987C30.9432 39.7889 30.3935 39.8115 25.3966 39.8115C20.3955 39.8115 19.8848 39.8115 17.8991 39.6987C16.7297 39.6844 15.5716 39.4685 14.4755 39.0607C13.6749 38.755 12.9473 38.2847 12.3399 37.6801C11.7325 37.0755 11.2588 36.3502 10.9494 35.551C10.5462 34.4536 10.3305 33.2963 10.3114 32.1274C10.2232 30.1787 10.2027 29.6289 10.2027 24.632C10.2027 19.633 10.2027 19.1223 10.3114 17.1346C10.3247 15.9531 10.5405 14.7826 10.9494 13.674C11.575 12.0556 12.8571 10.7817 14.4755 10.1623C15.5721 9.75639 16.7299 9.54064 17.8991 9.52431C19.8499 9.4361 20.3976 9.41149 25.3966 9.41149C30.3955 9.41149 30.9084 9.41149 32.8919 9.52431C34.062 9.53838 35.2209 9.7542 36.3176 10.1623C37.1154 10.4705 37.8399 10.9422 38.4447 11.5469C39.0495 12.1517 39.5211 12.8762 39.8294 13.674C40.2326 14.7714 40.4482 15.9287 40.4673 17.0976C40.5555 19.0484 40.5781 19.5961 40.5781 24.5951C40.5781 29.592 40.5781 30.1294 40.4899 32.0905H40.4673V32.0884Z" fill="white"/>
</svg>
