<svg width="488" height="257" viewBox="0 0 488 257" fill="none" xmlns="http://www.w3.org/2000/svg">
<path fill-rule="evenodd" clip-rule="evenodd" d="M30 0C13.4315 0 0 13.4315 0 30V227C0 243.569 13.4315 257 30 257H458C474.569 257 488 243.569 488 227V30C488 13.4315 474.569 0 458 0H30ZM469.132 33.1455C467.519 28.8842 463.423 26.0783 458.866 26.1136C421.857 26.4005 398.364 36.4319 384.047 50.6601C369.819 64.7988 366.176 81.5716 365.766 92.3814C365.761 92.5191 365.758 92.6568 365.758 92.7945V103.628C348.756 85.759 321.435 75.6788 281.053 82.0404C276.724 82.7223 273.227 85.9324 272.177 90.1864C267.474 109.247 266.595 138.253 281.296 161.862C295.447 184.588 322.206 199.565 365.758 198.261V237.724C365.758 243.737 370.632 248.611 376.645 248.611C382.657 248.611 387.532 243.737 387.532 237.724V186.693V166.6C387.699 163.648 387.712 160.457 387.532 157.098V147.997C433.503 144.313 458.937 126.737 469.973 102.554C481.244 77.8562 475.549 50.0947 469.132 33.1455ZM450.165 93.514C443.619 107.858 427.319 122.621 387.532 126.152V93.0141C387.838 85.9037 390.277 75.1647 399.395 66.1044C407.758 57.7931 423.04 49.6054 451.183 48.1195C455.188 62.0374 456.685 79.226 450.165 93.514ZM351.878 120.745C361.109 131.621 365.019 145.747 365.758 157.628V166.28V176.482C327.357 177.827 308.795 164.832 299.779 150.353C290.821 135.967 289.595 117.532 291.893 102.565C324.014 99.1862 341.842 108.919 351.878 120.745Z" fill="#D9D9D9"/>
</svg>
