<svg width="166" height="107" viewBox="0 0 166 107" fill="none" xmlns="http://www.w3.org/2000/svg">
<g filter="url(#filter0_iiii_184_30)">
<path d="M124.306 36.2554C124.306 -13.1623 36.9682 -10.9959 36.9682 36.2554C-17.4939 36.2554 -6.86596 106.797 36.9682 106.797H125.393C174.187 106.797 182.5 36.2554 124.306 36.2554Z" fill="url(#paint0_linear_184_30)"/>
</g>
<path fill-rule="evenodd" clip-rule="evenodd" d="M102.489 43.3481C104.47 43.3481 106.076 41.742 106.076 39.7607C106.076 37.7795 104.47 36.1733 102.489 36.1733C100.773 36.1733 99.3376 37.3789 98.9847 38.9895C95.3704 39.4468 92.1886 40.7719 89.7568 42.5806C86.7385 44.8254 84.7746 47.9036 84.7746 51.0663V67.9659V81.8382V101.299L84.7747 101.314C84.7779 101.528 84.7808 101.7 84.7832 101.834L84.7867 102.01C84.7878 102.059 84.7888 102.101 84.7897 102.136L84.7911 102.183L84.7926 102.223L84.7936 102.243L84.7949 102.266L84.796 102.281L84.7978 102.302C84.7986 102.309 84.7998 102.321 84.8015 102.334L84.8052 102.36C84.8066 102.369 84.81 102.388 84.8121 102.399C84.815 102.413 84.8226 102.446 84.8276 102.465C84.8354 102.493 84.8589 102.561 84.8756 102.602C84.9088 102.67 85.0363 102.854 85.1425 102.958C85.3906 103.109 85.9976 103.158 86.297 103.029C86.4411 102.915 86.6103 102.699 86.6521 102.618C86.6722 102.572 86.6996 102.493 86.7083 102.463C86.7137 102.442 86.7219 102.405 86.7249 102.39C86.727 102.378 86.7304 102.357 86.7318 102.348L86.7353 102.321L86.7373 102.301C86.7383 102.291 86.739 102.282 86.7395 102.275L86.7406 102.258L86.7413 102.244L86.7421 102.223L86.7426 102.205L86.7433 102.169L86.7437 102.129L86.7441 102.084L86.7444 101.976C86.7446 101.897 86.7445 101.803 86.7443 101.701C86.7438 101.495 86.7425 101.251 86.7409 101.013C86.7393 100.776 86.7373 100.543 86.7352 100.361C86.7341 100.269 86.733 100.189 86.7319 100.127C86.7313 100.096 86.7307 100.068 86.7301 100.044L86.7291 100.009L86.7284 99.9913L86.7274 99.9707L86.7266 99.9573L86.7252 99.939L86.7239 99.9244L86.7224 99.9104L86.7217 99.9042V81.8382V68.9395H101.758C105.661 69.0165 111.5 69.937 116.327 72.4102C120.293 74.4418 123.482 77.4593 124.476 81.8677C123.154 82.3961 122.219 83.6891 122.219 85.2004C122.219 87.1817 123.825 88.7878 125.807 88.7878C127.788 88.7878 129.394 87.1817 129.394 85.2004C129.394 83.4309 128.113 81.9605 126.427 81.6665C125.335 76.4165 121.578 72.9125 117.215 70.6773C114.717 69.3975 111.988 68.5128 109.373 67.9312C111.989 67.3295 114.719 66.4282 117.217 65.1403C121.791 62.7829 125.709 59.0548 126.571 53.4309C128.185 53.0807 129.394 51.6441 129.394 49.9251C129.394 47.9438 127.788 46.3377 125.807 46.3377C123.825 46.3377 122.219 47.9438 122.219 49.9251C122.219 51.4892 123.22 52.8195 124.616 53.3104C123.82 58.0329 120.509 61.2533 116.325 63.4096C111.496 65.8985 105.657 66.8714 101.753 66.9924H86.7217V51.0663C86.7217 48.7201 88.2074 46.1596 90.9188 44.1429C93.0442 42.5621 95.8613 41.3695 99.0993 40.938C99.5865 42.341 100.92 43.3481 102.489 43.3481Z" fill="white"/>
<path fill-rule="evenodd" clip-rule="evenodd" d="M62.6054 43.3481C60.6241 43.3481 59.018 41.742 59.018 39.7607C59.018 37.7795 60.6241 36.1733 62.6054 36.1733C64.322 36.1733 65.7569 37.379 66.1097 38.9896C69.7237 39.447 72.9052 40.7721 75.3368 42.5806C78.3551 44.8254 80.319 47.9036 80.319 51.0663V67.9659V81.8382V101.299L80.3189 101.314C80.3157 101.528 80.3129 101.7 80.3104 101.834L80.3069 102.01C80.3059 102.059 80.3049 102.101 80.3039 102.136L80.3025 102.183L80.301 102.223L80.3 102.243L80.2987 102.266L80.2976 102.281L80.2958 102.302C80.295 102.309 80.2939 102.321 80.2921 102.334L80.2884 102.36L80.2849 102.381L80.2816 102.399C80.2786 102.413 80.271 102.446 80.266 102.465C80.2582 102.493 80.2348 102.561 80.2181 102.602C80.1849 102.67 80.0573 102.854 79.9512 102.958C79.703 103.109 79.0961 103.158 78.7966 103.029C78.6525 102.915 78.4833 102.699 78.4415 102.618C78.4214 102.572 78.394 102.493 78.3853 102.463C78.3799 102.442 78.3717 102.405 78.3687 102.39C78.3666 102.378 78.3632 102.357 78.3618 102.348L78.3583 102.321L78.3563 102.301C78.3553 102.291 78.3546 102.282 78.3541 102.275L78.353 102.258L78.3524 102.244L78.3516 102.223L78.3511 102.205L78.3504 102.169C78.35 102.144 78.3498 102.116 78.3496 102.084L78.3492 101.976C78.349 101.897 78.3491 101.803 78.3494 101.701C78.3499 101.495 78.3511 101.251 78.3527 101.013C78.3543 100.776 78.3563 100.543 78.3585 100.361C78.3595 100.269 78.3606 100.189 78.3618 100.127C78.3623 100.096 78.3629 100.068 78.3635 100.044L78.3646 100.009L78.3652 99.9914L78.3662 99.9707L78.3671 99.9573L78.3684 99.939C78.3687 99.936 78.369 99.9324 78.3694 99.9283C78.3699 99.9231 78.3705 99.917 78.3712 99.9104L78.3719 99.9042V81.8382V68.9395H63.3355C59.4329 69.0165 53.5939 69.937 48.7663 72.4102C44.8008 74.4418 41.612 77.4593 40.6172 81.8677C41.94 82.3961 42.8745 83.6891 42.8745 85.2004C42.8745 87.1817 41.2684 88.7878 39.2871 88.7878C37.3059 88.7878 35.6997 87.1817 35.6997 85.2004C35.6997 83.4309 36.981 81.9605 38.6664 81.6665C39.7584 76.4165 43.5155 72.9125 47.8785 70.6773C50.3767 69.3975 53.1054 68.5128 55.721 67.9312C53.1047 67.3295 50.3751 66.4282 47.8764 65.1403C43.3025 62.7829 39.385 59.0548 38.5229 53.4309C36.9088 53.0807 35.6997 51.6441 35.6997 49.9251C35.6997 47.9438 37.3059 46.3377 39.2871 46.3377C41.2684 46.3377 42.8745 47.9438 42.8745 49.9251C42.8745 51.4892 41.8735 52.8195 40.4772 53.3104C41.274 58.0329 44.5848 61.2533 48.7684 63.4096C53.5975 65.8985 59.4367 66.8714 63.3409 66.9924H78.3719V51.0663C78.3719 48.7201 76.8863 46.1596 74.1748 44.1429C72.0496 42.5622 69.2327 41.3697 65.9951 40.9381C65.5079 42.3411 64.1742 43.3481 62.6054 43.3481Z" fill="white"/>
<defs>
<filter id="filter0_iiii_184_30" x="0" y="-10.7622" width="165.015" height="118.755" filterUnits="userSpaceOnUse" color-interpolation-filters="sRGB">
<feFlood flood-opacity="0" result="BackgroundImageFix"/>
<feBlend mode="normal" in="SourceGraphic" in2="BackgroundImageFix" result="shape"/>
<feColorMatrix in="SourceAlpha" type="matrix" values="0 0 0 0 0 0 0 0 0 0 0 0 0 0 0 0 0 0 127 0" result="hardAlpha"/>
<feOffset dy="-60.9856"/>
<feGaussianBlur stdDeviation="5.38108"/>
<feComposite in2="hardAlpha" operator="arithmetic" k2="-1" k3="1"/>
<feColorMatrix type="matrix" values="0 0 0 0 0.283333 0 0 0 0 1 0 0 0 0 0.656 0 0 0 1 0"/>
<feBlend mode="normal" in2="shape" result="effect1_innerShadow_184_30"/>
<feColorMatrix in="SourceAlpha" type="matrix" values="0 0 0 0 0 0 0 0 0 0 0 0 0 0 0 0 0 0 127 0" result="hardAlpha"/>
<feOffset dy="-32.2865"/>
<feGaussianBlur stdDeviation="5.38108"/>
<feComposite in2="hardAlpha" operator="arithmetic" k2="-1" k3="1"/>
<feColorMatrix type="matrix" values="0 0 0 0 0.104722 0 0 0 0 0.966667 0 0 0 0 0.7598 0 0 0 1 0"/>
<feBlend mode="normal" in2="effect1_innerShadow_184_30" result="effect2_innerShadow_184_30"/>
<feColorMatrix in="SourceAlpha" type="matrix" values="0 0 0 0 0 0 0 0 0 0 0 0 0 0 0 0 0 0 127 0" result="hardAlpha"/>
<feOffset dy="-7.47372"/>
<feGaussianBlur stdDeviation="5.38108"/>
<feComposite in2="hardAlpha" operator="arithmetic" k2="-1" k3="1"/>
<feColorMatrix type="matrix" values="0 0 0 0 0.0442361 0 0 0 0 0.672642 0 0 0 0 0.758333 0 0 0 1 0"/>
<feBlend mode="normal" in2="effect2_innerShadow_184_30" result="effect3_innerShadow_184_30"/>
<feColorMatrix in="SourceAlpha" type="matrix" values="0 0 0 0 0 0 0 0 0 0 0 0 0 0 0 0 0 0 127 0" result="hardAlpha"/>
<feOffset dy="1.1958"/>
<feGaussianBlur stdDeviation="4.18529"/>
<feComposite in2="hardAlpha" operator="arithmetic" k2="-1" k3="1"/>
<feColorMatrix type="matrix" values="0 0 0 0 0.8845 0 0 0 0 1 0 0 0 0 0.7375 0 0 0 1 0"/>
<feBlend mode="normal" in2="effect3_innerShadow_184_30" result="effect4_innerShadow_184_30"/>
</filter>
<linearGradient id="paint0_linear_184_30" x1="82.5077" y1="0" x2="82.5077" y2="106.797" gradientUnits="userSpaceOnUse">
<stop stop-color="#3CDF7E"/>
<stop offset="1" stop-color="#47F9A1"/>
</linearGradient>
</defs>
</svg>
