<svg width="401" height="383" viewBox="0 0 401 383" fill="none" xmlns="http://www.w3.org/2000/svg">
<g filter="url(#filter0_i_249_43)">
<path d="M311.861 29.9985L391.315 157.22C404.228 177.896 404.228 204.124 391.315 224.799L311.861 352.021C300.207 370.682 279.758 382.02 257.757 382.02L143.243 382.02C121.242 382.02 100.793 370.682 89.1392 352.021L9.6846 224.799C-3.22818 204.124 -3.22822 177.896 9.68461 157.22L89.1391 29.9985C100.793 11.3378 121.242 -9.61698e-07 143.243 0L257.757 5.0056e-06C279.758 5.9673e-06 300.207 11.3378 311.861 29.9985Z" fill="#5849FF"/>
</g>
<g filter="url(#filter1_iiii_249_43)">
<path d="M261.439 88.2267C261.439 16.2727 134.271 19.4271 134.271 88.2268C54.9726 88.2268 70.4472 190.938 134.271 190.938H263.021C334.067 190.938 346.171 88.2267 261.439 88.2267Z" fill="url(#paint0_linear_249_43)"/>
</g>
<path fill-rule="evenodd" clip-rule="evenodd" d="M229.672 98.5537C232.557 98.5537 234.896 96.2151 234.896 93.3303C234.896 90.4455 232.557 88.1069 229.672 88.1069C227.173 88.1069 225.083 89.8624 224.57 92.2076C219.307 92.8734 214.674 94.8028 211.134 97.4363C206.739 100.705 203.879 105.187 203.879 109.792V134.398V154.597V182.933C203.879 184.196 203.926 185.437 204.018 186.657L206.249 246.169L209.082 246.062L207.398 201.15C211.539 211.445 218.803 219.619 226.279 225.712C232.012 230.383 237.909 233.867 242.717 236.187C245.122 237.347 247.267 238.222 248.997 238.811C250.666 239.379 252.106 239.737 253.026 239.737V236.902C252.622 236.902 251.577 236.694 249.911 236.127C248.306 235.581 246.268 234.752 243.949 233.633C239.312 231.396 233.608 228.027 228.07 223.514C221.465 218.131 215.153 211.173 211.128 202.61C214.738 207.968 219.432 213.093 224.591 217.672C235.804 227.625 249.452 235.201 259.345 236.882L259.82 234.087C250.653 232.529 237.478 225.32 226.472 215.552C222.014 211.595 217.951 207.252 214.684 202.748C220.59 208.55 228.449 214.011 237.021 218.735C254.751 228.505 275.884 235.307 289.704 235.307V232.472C276.553 232.472 255.907 225.905 238.389 216.252C229.651 211.437 221.779 205.901 216.059 200.116C210.517 194.511 207.157 188.838 206.747 183.486C206.746 183.193 206.745 182.851 206.742 182.517C206.74 182.171 206.737 181.832 206.734 181.566C206.732 181.434 206.731 181.317 206.729 181.226C206.728 181.181 206.727 181.139 206.727 181.105L206.725 181.054L206.724 181.029L206.723 180.999L206.721 180.979L206.719 180.952L206.718 180.934L206.715 180.911L206.714 180.902V154.597V135.816H228.608C234.29 135.928 242.792 137.268 249.821 140.869C255.595 143.827 260.238 148.221 261.687 154.64C259.761 155.409 258.4 157.292 258.4 159.492C258.4 162.377 260.739 164.716 263.623 164.716C266.508 164.716 268.847 162.377 268.847 159.492C268.847 156.916 266.981 154.775 264.527 154.347C262.937 146.703 257.467 141.601 251.114 138.346C247.476 136.483 243.503 135.195 239.695 134.348C243.504 133.472 247.479 132.159 251.117 130.284C257.777 126.852 263.481 121.423 264.736 113.234C267.086 112.724 268.847 110.633 268.847 108.13C268.847 105.245 266.508 102.906 263.623 102.906C260.739 102.906 258.4 105.245 258.4 108.13C258.4 110.407 259.858 112.344 261.891 113.059C260.731 119.935 255.91 124.624 249.818 127.764C242.787 131.388 234.285 132.805 228.6 132.981H206.714V109.792C206.714 106.376 208.878 102.647 212.825 99.7111C215.92 97.4094 220.022 95.6728 224.737 95.0447C225.446 97.0874 227.388 98.5537 229.672 98.5537Z" fill="white"/>
<path fill-rule="evenodd" clip-rule="evenodd" d="M171.6 98.5537C168.715 98.5537 166.377 96.2151 166.377 93.3303C166.377 90.4455 168.715 88.1069 171.6 88.1069C174.1 88.1069 176.189 89.8624 176.703 92.2077C181.965 92.8737 186.597 94.803 190.138 97.4363C194.532 100.705 197.392 105.187 197.392 109.792V134.398V154.597V182.933C197.392 183.472 197.382 184.007 197.363 184.538L196.325 242.597L193.491 242.546L194.263 199.336C189.811 210.657 181.207 219.648 172.412 226.276C166.048 231.073 159.521 234.682 154.245 237.096C151.606 238.303 149.267 239.217 147.404 239.833C145.609 240.425 144.087 240.8 143.169 240.8V237.965C143.575 237.965 144.697 237.741 146.514 237.141C148.263 236.563 150.505 235.689 153.065 234.518C158.186 232.175 164.53 228.666 170.705 224.012C178.304 218.286 185.554 210.901 190.024 201.895C186.006 207.554 180.661 212.976 174.812 217.795C162.689 227.781 148.137 235.382 138.268 237.059L137.793 234.264C146.983 232.702 161.084 225.43 173.009 215.607C176.775 212.504 180.299 209.168 183.361 205.707C177.912 210.437 171.254 214.889 164.105 218.832C146.303 228.65 125.097 235.501 111.275 235.501V232.666C124.425 232.666 145.143 226.052 162.736 216.349C171.511 211.51 179.42 205.949 185.167 200.145C190.737 194.521 194.114 188.836 194.524 183.485C194.525 183.192 194.527 182.85 194.529 182.517C194.531 182.171 194.534 181.832 194.537 181.566C194.539 181.434 194.54 181.317 194.542 181.226C194.543 181.19 194.543 181.156 194.544 181.126L194.545 181.105L194.546 181.054L194.547 181.029L194.549 180.999L194.55 180.979L194.552 180.952L194.553 180.934L194.556 180.911L194.557 180.902V154.597V135.816H172.663C166.981 135.928 158.479 137.268 151.45 140.869C145.676 143.827 141.033 148.221 139.585 154.64C141.51 155.409 142.871 157.292 142.871 159.492C142.871 162.377 140.533 164.716 137.648 164.716C134.763 164.716 132.424 162.377 132.424 159.492C132.424 156.916 134.29 154.775 136.744 154.347C138.334 146.703 143.805 141.601 150.157 138.346C153.795 136.483 157.768 135.195 161.576 134.348C157.767 133.472 153.792 132.159 150.154 130.284C143.494 126.852 137.79 121.423 136.535 113.234C134.185 112.724 132.424 110.633 132.424 108.13C132.424 105.245 134.763 102.906 137.648 102.906C140.533 102.906 142.871 105.245 142.871 108.13C142.871 110.407 141.414 112.344 139.381 113.059C140.541 119.935 145.361 124.624 151.453 127.764C158.484 131.388 166.986 132.805 172.671 132.981H194.557V109.792C194.557 106.376 192.394 102.647 188.446 99.7111C185.351 97.4095 181.25 95.6731 176.536 95.0448C175.826 97.0875 173.884 98.5537 171.6 98.5537ZM197.361 182.954L197.392 182.933H197.361L197.361 182.954ZM197.361 182.954L197.371 184.093L197.374 183.967C197.376 183.895 197.378 183.81 197.379 183.712C197.383 183.516 197.387 183.266 197.392 182.954L197.361 182.954Z" fill="white"/>
<path d="M112.528 281.41H121.706V263.781H130.355L141.316 281.41H152.078L139.995 262.527C143.693 261.778 146.532 260.172 148.513 257.707C150.494 255.242 151.484 252.161 151.484 248.463C151.484 243.753 150.075 240.056 147.258 237.371C144.485 234.642 140.281 233.277 134.647 233.277H112.528V281.41ZM133.063 241.134C135.792 241.134 137.927 241.706 139.467 242.851C141.052 243.995 141.844 245.624 141.844 247.737V250.246C141.844 252.315 141.074 253.943 139.533 255.132C137.993 256.276 135.836 256.849 133.063 256.849H121.706V241.134H133.063ZM178.638 282.071C186.165 282.071 191.909 279.914 195.871 275.6C199.876 271.286 201.879 265.256 201.879 257.509V257.311C201.879 251.941 200.933 247.429 199.04 243.775C197.147 240.122 194.462 237.371 190.985 235.522C187.508 233.629 183.392 232.683 178.638 232.683C173.928 232.683 169.812 233.629 166.291 235.522C162.814 237.371 160.128 240.122 158.236 243.775C156.343 247.429 155.397 251.941 155.397 257.311V257.509C155.397 265.256 157.377 271.286 161.339 275.6C165.345 279.914 171.111 282.071 178.638 282.071ZM178.638 274.081C174.368 274.081 171.023 272.915 168.602 270.582C166.225 268.249 165.036 265.058 165.036 261.008V253.745C165.036 249.916 166.159 246.79 168.404 244.369C170.693 241.904 174.104 240.672 178.638 240.672C183.216 240.672 186.627 241.904 188.872 244.369C191.117 246.79 192.239 249.916 192.239 253.745V261.008C192.239 265.058 191.051 268.249 188.674 270.582C186.297 272.915 182.952 274.081 178.638 274.081ZM228.225 282.071C235.752 282.071 241.496 279.914 245.458 275.6C249.463 271.286 251.466 265.256 251.466 257.509V257.311C251.466 251.941 250.52 247.429 248.627 243.775C246.734 240.122 244.049 237.371 240.572 235.522C237.094 233.629 232.979 232.683 228.225 232.683C223.515 232.683 219.399 233.629 215.878 235.522C212.401 237.371 209.715 240.122 207.823 243.775C205.93 247.429 204.984 251.941 204.984 257.311V257.509C204.984 265.256 206.964 271.286 210.926 275.6C214.932 279.914 220.698 282.071 228.225 282.071ZM228.225 274.081C223.955 274.081 220.61 272.915 218.189 270.582C215.812 268.249 214.623 265.058 214.623 261.008V253.745C214.623 249.916 215.746 246.79 217.991 244.369C220.28 241.904 223.691 240.672 228.225 240.672C232.803 240.672 236.214 241.904 238.459 244.369C240.704 246.79 241.826 249.916 241.826 253.745V261.008C241.826 265.058 240.638 268.249 238.261 270.582C235.884 272.915 232.539 274.081 228.225 274.081ZM291.083 241.134V233.277H252.392V241.134H267.182V281.41H276.293V241.134H291.083Z" fill="white"/>
<path d="M92.8384 333.803H102.016V313.334H124.532V333.803H133.71V285.668H124.532V305.477H102.016V285.668H92.8384V333.803ZM136.726 333.803H145.574L149.205 323.304H169.938L173.57 333.803H182.682L166.043 285.668H153.299L136.726 333.803ZM151.384 316.305L156.535 301.185L159.374 292.866H159.77L162.609 301.119L167.759 316.305H151.384ZM203.864 334.463C207.737 334.463 211.215 333.759 214.296 332.35C217.377 330.942 219.886 328.983 221.823 326.474C223.76 323.921 224.904 320.949 225.257 317.56H215.881C215.352 320.421 213.966 322.622 211.721 324.163C209.476 325.703 206.857 326.474 203.864 326.474C199.594 326.474 196.248 325.307 193.827 322.974C191.45 320.641 190.262 317.45 190.262 313.4V306.137C190.262 302.307 191.384 299.182 193.629 296.761C195.918 294.296 199.33 293.064 203.864 293.064C206.769 293.064 209.344 293.812 211.589 295.309C213.834 296.761 215.264 298.94 215.881 301.845H225.257C224.904 298.5 223.782 295.573 221.889 293.064C219.996 290.555 217.509 288.596 214.428 287.187C211.347 285.779 207.825 285.074 203.864 285.074C199.154 285.074 195.038 286.021 191.516 287.913C188.039 289.762 185.354 292.513 183.461 296.167C181.568 299.82 180.622 304.332 180.622 309.703V309.901C180.622 317.648 182.603 323.678 186.564 327.992C190.57 332.306 196.336 334.463 203.864 334.463ZM230.916 333.803H240.094V320.927L247.357 313.07L261.223 333.803H272.316L253.894 306.137L271.655 285.668H260.497L240.094 309.703V285.668H230.916V333.803ZM290.156 334.463C294.074 334.463 297.485 333.935 300.39 332.878C303.296 331.778 305.563 330.149 307.191 327.992C308.82 325.791 309.634 323.04 309.634 319.739C309.634 316.349 308.886 313.686 307.389 311.749C305.937 309.813 303.956 308.338 301.447 307.326C298.938 306.313 296.165 305.543 293.127 305.015C290.838 304.574 288.814 304.156 287.053 303.76C285.336 303.32 283.994 302.682 283.025 301.845C282.101 301.009 281.639 299.776 281.639 298.148C281.639 296.255 282.387 294.78 283.884 293.724C285.424 292.623 287.493 292.073 290.09 292.073C293.083 292.073 295.35 292.711 296.891 293.988C298.432 295.265 299.246 297.069 299.334 299.402H308.644C308.556 294.912 306.927 291.413 303.758 288.904C300.589 286.351 296.033 285.074 290.09 285.074C286.437 285.074 283.245 285.624 280.516 286.725C277.787 287.781 275.652 289.366 274.111 291.479C272.615 293.548 271.866 296.123 271.866 299.204C271.866 302.021 272.527 304.332 273.847 306.137C275.168 307.898 276.995 309.306 279.328 310.363C281.705 311.419 284.434 312.256 287.515 312.872C289.848 313.312 291.939 313.774 293.788 314.259C295.636 314.743 297.111 315.447 298.212 316.371C299.312 317.296 299.862 318.66 299.862 320.465C299.862 322.622 299.07 324.295 297.485 325.483C295.901 326.672 293.524 327.266 290.354 327.266C287.229 327.266 284.742 326.606 282.893 325.285C281.044 323.921 280.076 321.764 279.988 318.814H270.678C270.678 321.896 271.404 324.625 272.857 327.002C274.31 329.335 276.488 331.162 279.394 332.482C282.299 333.803 285.886 334.463 290.156 334.463Z" fill="white"/>
<path d="M120.489 354.177C121.323 354.177 122.052 354.061 122.675 353.83C123.308 353.589 123.795 353.232 124.137 352.76C124.488 352.278 124.664 351.675 124.664 350.951C124.664 350.389 124.559 349.921 124.348 349.55C124.147 349.178 123.87 348.877 123.519 348.645C123.167 348.414 122.765 348.228 122.313 348.088C121.871 347.947 121.409 347.832 120.926 347.741C120.394 347.631 119.907 347.515 119.464 347.395C119.032 347.274 118.686 347.093 118.425 346.852C118.163 346.611 118.033 346.259 118.033 345.797C118.033 345.234 118.249 344.792 118.681 344.471C119.123 344.139 119.716 343.973 120.459 343.973C121.323 343.973 121.966 344.164 122.388 344.546C122.81 344.928 123.036 345.455 123.066 346.129H124.453C124.433 345.144 124.086 344.36 123.413 343.777C122.74 343.185 121.765 342.888 120.489 342.888C119.706 342.888 119.022 343.009 118.44 343.25C117.857 343.491 117.4 343.838 117.068 344.29C116.747 344.742 116.586 345.285 116.586 345.918C116.586 346.581 116.747 347.108 117.068 347.5C117.4 347.882 117.832 348.178 118.364 348.389C118.907 348.6 119.5 348.771 120.143 348.902C120.695 349.012 121.203 349.138 121.665 349.278C122.127 349.409 122.499 349.61 122.78 349.881C123.072 350.143 123.217 350.529 123.217 351.042C123.217 351.665 122.996 352.162 122.554 352.534C122.112 352.896 121.434 353.076 120.519 353.076C119.645 353.076 118.952 352.88 118.44 352.489C117.937 352.097 117.666 351.469 117.626 350.605H116.254C116.254 351.298 116.41 351.916 116.721 352.458C117.033 352.991 117.5 353.413 118.123 353.724C118.756 354.026 119.545 354.177 120.489 354.177ZM129.335 354.026H130.676V349.429L134.535 343.039H133.012L130.39 347.485L130.043 348.103H129.968L129.621 347.485L126.999 343.039H125.477L129.335 349.429V354.026ZM139.755 354.177C140.589 354.177 141.318 354.061 141.941 353.83C142.574 353.589 143.061 353.232 143.402 352.76C143.754 352.278 143.93 351.675 143.93 350.951C143.93 350.389 143.824 349.921 143.613 349.55C143.412 349.178 143.136 348.877 142.785 348.645C142.433 348.414 142.031 348.228 141.579 348.088C141.137 347.947 140.675 347.832 140.192 347.741C139.66 347.631 139.172 347.515 138.73 347.395C138.298 347.274 137.952 347.093 137.69 346.852C137.429 346.611 137.299 346.259 137.299 345.797C137.299 345.234 137.515 344.792 137.947 344.471C138.389 344.139 138.982 343.973 139.725 343.973C140.589 343.973 141.232 344.164 141.654 344.546C142.076 344.928 142.302 345.455 142.332 346.129H143.719C143.699 345.144 143.352 344.36 142.679 343.777C142.006 343.185 141.031 342.888 139.755 342.888C138.971 342.888 138.288 343.009 137.706 343.25C137.123 343.491 136.666 343.838 136.334 344.29C136.012 344.742 135.852 345.285 135.852 345.918C135.852 346.581 136.012 347.108 136.334 347.5C136.666 347.882 137.098 348.178 137.63 348.389C138.173 348.6 138.766 348.771 139.409 348.902C139.961 349.012 140.469 349.138 140.931 349.278C141.393 349.409 141.765 349.61 142.046 349.881C142.337 350.143 142.483 350.529 142.483 351.042C142.483 351.665 142.262 352.162 141.82 352.534C141.378 352.896 140.7 353.076 139.785 353.076C138.911 353.076 138.218 352.88 137.706 352.489C137.203 352.097 136.932 351.469 136.892 350.605H135.52C135.52 351.298 135.676 351.916 135.987 352.458C136.299 352.991 136.766 353.413 137.389 353.724C138.022 354.026 138.811 354.177 139.755 354.177ZM152.892 344.214V343.039H144.452V344.214H148.009V354.026H149.35V344.214H152.892ZM154.791 354.026H162.387V352.85H156.117V348.947H161.648V347.847H156.117V344.214H162.387V343.039H154.791V354.026ZM165.049 354.026H166.345L166.33 345.119V344.531H166.421L166.617 345.119L169.872 354.026H171.228L174.499 345.104L174.68 344.531H174.77V354.026H176.066V343.039H173.971L170.58 352.383H170.505L167.099 343.039H165.049V354.026ZM183.476 354.026H184.802V349.052H191.132V354.026H192.474V343.039H191.132V347.877H184.802V343.039H183.476V354.026ZM194.285 354.026H195.596L196.606 351.253H201.776L202.77 354.026H204.112L200.133 343.039H198.279L194.285 354.026ZM196.938 350.213L198.309 346.43L199.138 344.154H199.229L200.042 346.4L201.429 350.213H196.938ZM209.788 354.177C210.642 354.177 211.406 354.026 212.079 353.724C212.762 353.413 213.315 352.981 213.737 352.428C214.169 351.866 214.425 351.213 214.506 350.469H213.134C213.044 351.022 212.838 351.489 212.516 351.871C212.195 352.242 211.798 352.524 211.326 352.715C210.853 352.906 210.341 353.001 209.788 353.001C208.984 353.001 208.301 352.845 207.739 352.534C207.176 352.222 206.749 351.79 206.458 351.238C206.176 350.685 206.036 350.042 206.036 349.309V347.771C206.036 347.048 206.176 346.41 206.458 345.857C206.739 345.305 207.156 344.873 207.708 344.561C208.271 344.24 208.964 344.079 209.788 344.079C210.331 344.079 210.833 344.174 211.295 344.365C211.768 344.546 212.164 344.822 212.486 345.194C212.818 345.566 213.034 346.033 213.134 346.596H214.506C214.415 345.852 214.159 345.204 213.737 344.652C213.315 344.099 212.767 343.672 212.094 343.371C211.421 343.059 210.652 342.903 209.788 342.903C208.733 342.903 207.819 343.119 207.045 343.551C206.272 343.973 205.674 344.601 205.252 345.435C204.83 346.259 204.619 347.284 204.619 348.51V348.57C204.619 350.409 205.076 351.805 205.99 352.76C206.915 353.704 208.181 354.177 209.788 354.177ZM216.989 354.026H218.315V350.936L220.41 348.721L224.088 354.026H225.715L221.36 347.711L225.565 343.039H223.922L218.315 349.278V343.039H216.989V354.026ZM230.727 354.177C231.561 354.177 232.29 354.061 232.913 353.83C233.546 353.589 234.033 353.232 234.375 352.76C234.726 352.278 234.902 351.675 234.902 350.951C234.902 350.389 234.797 349.921 234.586 349.55C234.385 349.178 234.108 348.877 233.757 348.645C233.405 348.414 233.003 348.228 232.551 348.088C232.109 347.947 231.647 347.832 231.164 347.741C230.632 347.631 230.145 347.515 229.702 347.395C229.27 347.274 228.924 347.093 228.663 346.852C228.401 346.611 228.271 346.259 228.271 345.797C228.271 345.234 228.487 344.792 228.919 344.471C229.361 344.139 229.954 343.973 230.697 343.973C231.561 343.973 232.204 344.164 232.626 344.546C233.048 344.928 233.274 345.455 233.304 346.129H234.691C234.671 345.144 234.324 344.36 233.651 343.777C232.978 343.185 232.003 342.888 230.727 342.888C229.944 342.888 229.26 343.009 228.678 343.25C228.095 343.491 227.638 343.838 227.306 344.29C226.985 344.742 226.824 345.285 226.824 345.918C226.824 346.581 226.985 347.108 227.306 347.5C227.638 347.882 228.07 348.178 228.602 348.389C229.145 348.6 229.738 348.771 230.381 348.902C230.933 349.012 231.441 349.138 231.903 349.278C232.365 349.409 232.737 349.61 233.018 349.881C233.31 350.143 233.455 350.529 233.455 351.042C233.455 351.665 233.234 352.162 232.792 352.534C232.35 352.896 231.672 353.076 230.757 353.076C229.883 353.076 229.19 352.88 228.678 352.489C228.175 352.097 227.904 351.469 227.864 350.605H226.492C226.492 351.298 226.648 351.916 226.959 352.458C227.271 352.991 227.738 353.413 228.361 353.724C228.994 354.026 229.783 354.177 230.727 354.177ZM240.791 354.026H248.367V352.831H242.558L246.174 349.019C246.851 348.332 247.353 347.693 247.68 347.104C248.007 346.515 248.171 345.883 248.171 345.206C248.171 344.53 248.018 343.946 247.713 343.455C247.407 342.964 246.982 342.588 246.436 342.326C245.891 342.064 245.253 341.934 244.522 341.934C243.344 341.934 242.406 342.272 241.707 342.948C241.009 343.614 240.666 344.535 240.676 345.713H242.051C242.04 344.939 242.231 344.323 242.624 343.864C243.016 343.395 243.627 343.161 244.456 343.161C245.122 343.161 245.656 343.33 246.06 343.668C246.474 344.006 246.682 344.481 246.682 345.092V345.632C246.682 346.003 246.534 346.412 246.24 346.859C245.956 347.295 245.564 347.786 245.062 348.332L240.791 352.88V354.026ZM254.24 354.173C255.07 354.173 255.789 353.982 256.4 353.6C257.011 353.208 257.486 352.575 257.824 351.702C258.173 350.83 258.348 349.668 258.348 348.217V347.922C258.348 345.839 257.993 344.323 257.284 343.374C256.575 342.424 255.56 341.95 254.24 341.95C252.92 341.95 251.906 342.424 251.197 343.374C250.488 344.323 250.133 345.839 250.133 347.922V348.217C250.133 349.668 250.302 350.83 250.641 351.702C250.979 352.575 251.453 353.208 252.064 353.6C252.686 353.982 253.411 354.173 254.24 354.173ZM254.24 352.946C253.368 352.946 252.708 352.635 252.261 352.013C251.813 351.391 251.59 350.546 251.59 349.477V346.646C251.59 345.599 251.802 344.759 252.228 344.126C252.664 343.483 253.335 343.161 254.24 343.161C255.146 343.161 255.811 343.483 256.237 344.126C256.662 344.759 256.875 345.599 256.875 346.646V349.477C256.875 350.546 256.651 351.391 256.204 352.013C255.768 352.635 255.113 352.946 254.24 352.946ZM260.142 354.026H267.718V352.831H261.91L265.526 349.019C266.202 348.332 266.704 347.693 267.031 347.104C267.358 346.515 267.522 345.883 267.522 345.206C267.522 344.53 267.369 343.946 267.064 343.455C266.758 342.964 266.333 342.588 265.788 342.326C265.242 342.064 264.604 341.934 263.873 341.934C262.695 341.934 261.757 342.272 261.059 342.948C260.36 343.614 260.017 344.535 260.028 345.713H261.402C261.391 344.939 261.582 344.323 261.975 343.864C262.368 343.395 262.979 343.161 263.808 343.161C264.473 343.161 265.008 343.33 265.411 343.668C265.826 344.006 266.033 344.481 266.033 345.092V345.632C266.033 346.003 265.886 346.412 265.591 346.859C265.308 347.295 264.915 347.786 264.413 348.332L260.142 352.88V354.026ZM273.412 354.19C274.23 354.19 274.944 354.048 275.555 353.764C276.166 353.47 276.635 353.055 276.963 352.52C277.301 351.986 277.47 351.364 277.47 350.655C277.47 349.924 277.262 349.302 276.848 348.79C276.433 348.266 275.872 347.933 275.163 347.792V347.693C275.773 347.541 276.27 347.224 276.652 346.744C277.033 346.264 277.224 345.692 277.224 345.026C277.224 344.404 277.072 343.864 276.766 343.406C276.461 342.937 276.035 342.577 275.49 342.326C274.944 342.064 274.306 341.934 273.575 341.934C272.768 341.934 272.064 342.086 271.465 342.392C270.875 342.697 270.423 343.128 270.106 343.684C269.79 344.241 269.637 344.906 269.648 345.681H271.006C270.995 344.808 271.219 344.164 271.677 343.75C272.146 343.335 272.752 343.128 273.494 343.128C274.148 343.128 274.688 343.286 275.113 343.603C275.55 343.919 275.768 344.366 275.768 344.944V345.583C275.768 346.084 275.555 346.493 275.13 346.81C274.704 347.126 274.137 347.284 273.428 347.284H272.414V348.397H273.575C274.295 348.397 274.873 348.561 275.31 348.888C275.757 349.204 275.981 349.673 275.981 350.295V350.868C275.981 351.533 275.746 352.057 275.277 352.439C274.819 352.81 274.208 352.995 273.444 352.995C272.692 352.995 272.081 352.799 271.612 352.406C271.154 352.013 270.925 351.386 270.925 350.524H269.55C269.528 351.648 269.861 352.542 270.548 353.208C271.246 353.862 272.201 354.19 273.412 354.19Z" fill="#C3B4FF"/>
<defs>
<filter id="filter0_i_249_43" x="0" y="0" width="401" height="394.777" filterUnits="userSpaceOnUse" color-interpolation-filters="sRGB">
<feFlood flood-opacity="0" result="BackgroundImageFix"/>
<feBlend mode="normal" in="SourceGraphic" in2="BackgroundImageFix" result="shape"/>
<feColorMatrix in="SourceAlpha" type="matrix" values="0 0 0 0 0 0 0 0 0 0 0 0 0 0 0 0 0 0 127 0" result="hardAlpha"/>
<feOffset dy="12.7576"/>
<feGaussianBlur stdDeviation="7.79632"/>
<feComposite in2="hardAlpha" operator="arithmetic" k2="-1" k3="1"/>
<feColorMatrix type="matrix" values="0 0 0 0 0.471843 0 0 0 0 0.286275 0 0 0 0 1 0 0 0 1 0"/>
<feBlend mode="normal" in2="shape" result="effect1_innerShadow_249_43"/>
</filter>
<filter id="filter1_iiii_249_43" x="80.4443" y="19.7674" width="240.269" height="172.912" filterUnits="userSpaceOnUse" color-interpolation-filters="sRGB">
<feFlood flood-opacity="0" result="BackgroundImageFix"/>
<feBlend mode="normal" in="SourceGraphic" in2="BackgroundImageFix" result="shape"/>
<feColorMatrix in="SourceAlpha" type="matrix" values="0 0 0 0 0 0 0 0 0 0 0 0 0 0 0 0 0 0 127 0" result="hardAlpha"/>
<feOffset dy="-88.7974"/>
<feGaussianBlur stdDeviation="7.83506"/>
<feComposite in2="hardAlpha" operator="arithmetic" k2="-1" k3="1"/>
<feColorMatrix type="matrix" values="0 0 0 0 0.283333 0 0 0 0 1 0 0 0 0 0.656 0 0 0 1 0"/>
<feBlend mode="normal" in2="shape" result="effect1_innerShadow_249_43"/>
<feColorMatrix in="SourceAlpha" type="matrix" values="0 0 0 0 0 0 0 0 0 0 0 0 0 0 0 0 0 0 127 0" result="hardAlpha"/>
<feOffset dy="-47.0104"/>
<feGaussianBlur stdDeviation="7.83506"/>
<feComposite in2="hardAlpha" operator="arithmetic" k2="-1" k3="1"/>
<feColorMatrix type="matrix" values="0 0 0 0 0.104722 0 0 0 0 0.966667 0 0 0 0 0.7598 0 0 0 1 0"/>
<feBlend mode="normal" in2="effect1_innerShadow_249_43" result="effect2_innerShadow_249_43"/>
<feColorMatrix in="SourceAlpha" type="matrix" values="0 0 0 0 0 0 0 0 0 0 0 0 0 0 0 0 0 0 127 0" result="hardAlpha"/>
<feOffset dy="-10.882"/>
<feGaussianBlur stdDeviation="7.83506"/>
<feComposite in2="hardAlpha" operator="arithmetic" k2="-1" k3="1"/>
<feColorMatrix type="matrix" values="0 0 0 0 0.0442361 0 0 0 0 0.672642 0 0 0 0 0.758333 0 0 0 1 0"/>
<feBlend mode="normal" in2="effect2_innerShadow_249_43" result="effect3_innerShadow_249_43"/>
<feColorMatrix in="SourceAlpha" type="matrix" values="0 0 0 0 0 0 0 0 0 0 0 0 0 0 0 0 0 0 127 0" result="hardAlpha"/>
<feOffset dy="1.74113"/>
<feGaussianBlur stdDeviation="6.09394"/>
<feComposite in2="hardAlpha" operator="arithmetic" k2="-1" k3="1"/>
<feColorMatrix type="matrix" values="0 0 0 0 0.8845 0 0 0 0 1 0 0 0 0 0.7375 0 0 0 1 0"/>
<feBlend mode="normal" in2="effect3_innerShadow_249_43" result="effect4_innerShadow_249_43"/>
</filter>
<linearGradient id="paint0_linear_249_43" x1="200.579" y1="35.4375" x2="200.579" y2="190.938" gradientUnits="userSpaceOnUse">
<stop stop-color="#3CDF7E"/>
<stop offset="1" stop-color="#47F9A1"/>
</linearGradient>
</defs>
</svg>
