<svg width="340" height="64" viewBox="0 0 340 64" fill="none" xmlns="http://www.w3.org/2000/svg">
<path d="M53.6089 9.09123C41.345 -3.03488 21.6162 -3.02976 9.35677 9.10272C9.31197 9.14713 9.26614 9.19008 9.22148 9.23482C-2.20632 20.6784 -3.01185 38.7276 6.80061 51.1056C6.79895 51.0339 6.79617 50.9625 6.79657 50.8905C6.80541 48.9487 7.58005 47.0887 8.95224 45.7146C10.3244 44.3405 12.1833 43.5633 14.1252 43.5518C14.3691 43.5505 14.611 43.5609 14.8511 43.5831C11.991 39.6208 10.6337 34.7702 11.0219 29.899C11.4101 25.0277 13.5186 20.4534 16.9702 16.9941C17.0149 16.9493 17.0605 16.9063 17.1055 16.862C20.9572 13.0732 26.1483 10.9571 31.5512 10.9735C36.954 10.9899 42.1322 13.1374 45.9609 16.9496L46.0054 16.9942C47.0383 18.0025 48.4272 18.5628 49.8706 18.5536C51.314 18.5444 52.6956 17.9664 53.7156 16.9451C54.7356 15.9237 55.3117 14.5413 55.3189 13.0978C55.3261 11.6544 54.7638 10.2663 53.7541 9.23481L53.7095 9.19021C53.6757 9.15633 53.6427 9.12333 53.6089 9.09123Z" fill="white"/>
<path d="M57.203 13.1094C57.1942 15.0513 56.4196 16.9113 55.0474 18.2854C53.6752 19.6594 51.8163 20.4366 49.8744 20.4482C49.6305 20.4495 49.3886 20.4391 49.1485 20.4169C52.0087 24.3792 53.366 29.2297 52.9777 34.101C52.5895 38.9723 50.481 43.5466 47.0294 47.0058C46.9848 47.0506 46.9391 47.0937 46.8942 47.1379C43.0424 50.9268 37.8513 53.0429 32.4485 53.0265C27.0456 53.0101 21.8674 50.8626 18.0388 47.0504L17.9942 47.0058C16.9613 45.9975 15.5725 45.4372 14.129 45.4464C12.6856 45.4556 11.304 46.0336 10.284 47.0549C9.26405 48.0763 8.68796 49.4587 8.68076 50.9022C8.67355 52.3456 9.23582 53.7337 10.2456 54.7652L10.2901 54.8098C10.3239 54.8437 10.3569 54.8767 10.3907 54.9088C22.6546 67.035 42.3835 67.0297 54.6428 54.8973C54.6876 54.8529 54.7334 54.8099 54.7781 54.7652C66.206 43.3216 67.0115 25.2724 57.199 12.8944C57.2007 12.966 57.2034 13.0375 57.203 13.1094Z" fill="white"/>
<path d="M36.855 19.7772C38.1604 20.2833 39.3504 21.0473 40.3539 22.0236L37.8093 25.0077C36.2241 23.7116 34.5277 23.0633 32.72 23.063C31.76 23.063 31.0011 23.2586 30.4432 23.6497C29.885 24.0411 29.606 24.6055 29.6061 25.3429C29.586 25.7913 29.7155 26.2336 29.9744 26.6002C30.2198 26.9245 30.6551 27.2318 31.2802 27.5223C32.197 27.9224 33.1361 28.2694 34.0927 28.5616C36.4584 29.3218 38.1995 30.255 39.3159 31.3612C40.4318 32.4676 40.9898 34.0379 40.99 36.0719C40.99 37.5251 40.6217 38.8048 39.8851 39.9109C39.1485 41.0173 38.0882 41.8778 36.7043 42.4925C35.3201 43.107 33.6795 43.4144 31.7825 43.4145C29.8851 43.4145 28.2054 43.1128 26.7435 42.5093C25.3475 41.9483 24.0696 41.1293 22.9768 40.0952L25.7558 37.0442C26.5774 37.7606 27.5104 38.3382 28.518 38.7541C29.5042 39.1413 30.5557 39.3348 31.6151 39.3241C32.7535 39.3241 33.6519 39.0726 34.3104 38.5697C34.9685 38.0667 35.2978 37.3682 35.2981 36.4742C35.3162 35.9629 35.1884 35.4571 34.9298 35.0157C34.684 34.6249 34.2598 34.2729 33.6575 33.9596C32.816 33.5533 31.9425 33.2169 31.0459 32.9537C28.4788 32.1716 26.654 31.2104 25.5716 30.0703C24.4887 28.9304 23.9474 27.4887 23.9477 25.7452C23.9236 24.4827 24.2985 23.2449 25.0191 22.208C25.7332 21.1912 26.7265 20.4088 27.999 19.861C29.2714 19.3136 30.7111 19.0397 32.3182 19.0396C34.0592 19.0396 35.5715 19.2855 36.855 19.7772Z" fill="white"/>
<path d="M86.1357 29.0736C84.7162 29.1015 83.3069 28.827 82.0016 28.2682C80.862 27.7775 79.8828 26.9772 79.1748 25.9582C78.4606 24.8717 78.0899 23.5954 78.111 22.2954H82.2146C82.2337 23.24 82.6209 24.1397 83.2936 24.8031C83.9723 25.4823 84.9095 25.8217 86.1052 25.8213C86.9877 25.8688 87.859 25.6053 88.5673 25.0767C88.8639 24.8389 89.1009 24.535 89.2592 24.1893C89.4175 23.8436 89.4927 23.4657 89.479 23.0858C89.5003 22.7082 89.4393 22.3305 89.3002 21.9789C89.1611 21.6272 88.9472 21.31 88.6734 21.0492C88.0471 20.5125 87.3179 20.1092 86.5305 19.8638C85.6388 19.5599 84.6865 19.2357 83.6736 18.8912C82.032 18.3241 80.7806 17.5946 79.9195 16.7026C79.058 15.8111 78.6274 14.6257 78.6278 13.1465C78.5766 11.9998 78.8905 10.8664 79.5244 9.90942C80.1624 8.99108 81.0403 8.26559 82.0625 7.81212C83.2447 7.31801 84.5137 7.06484 85.7951 7.06743C87.0764 7.07002 88.3444 7.32832 89.5246 7.82719C90.5547 8.28899 91.438 9.02505 92.078 9.95493C92.7128 10.9217 93.0557 12.0508 93.0656 13.2073H88.9017C88.8808 12.4567 88.5703 11.7432 88.0352 11.2164C87.7289 10.9187 87.364 10.688 86.9637 10.5388C86.5634 10.3897 86.1365 10.3254 85.7101 10.3501C84.9453 10.3044 84.1882 10.5245 83.5672 10.9732C83.279 11.1953 83.0493 11.4845 82.8983 11.8156C82.7473 12.1467 82.6795 12.5096 82.7007 12.8729C82.6853 13.1855 82.737 13.4978 82.8524 13.7888C82.9677 14.0798 83.144 14.3427 83.3694 14.5598C83.9021 15.0264 84.522 15.3828 85.1932 15.6085C85.9632 15.8925 86.8447 16.1964 87.8378 16.5204C88.8358 16.8606 89.8021 17.2878 90.7255 17.7971C91.5712 18.2602 92.2911 18.9227 92.8227 19.7272C93.3837 20.6554 93.6586 21.7286 93.6128 22.8122C93.6189 23.9042 93.3245 24.9768 92.7619 25.9127C92.1552 26.9011 91.2803 27.6969 90.239 28.2076C88.9605 28.8211 87.5531 29.1182 86.1357 29.0736Z" fill="white"/>
<path d="M104.16 29.0735C102.782 29.0944 101.423 28.7482 100.223 28.0705C99.0669 27.4106 98.111 26.4494 97.4575 25.2892C96.7599 24.0305 96.4086 22.6094 96.4393 21.1707C96.4087 19.73 96.7656 18.3076 97.4727 17.052C98.1348 15.8932 99.0951 14.9329 100.254 14.2708C101.456 13.6128 102.805 13.2678 104.175 13.2678C105.545 13.2678 106.894 13.6128 108.096 14.2708C109.252 14.931 110.208 15.8921 110.862 17.052C111.559 18.3108 111.911 19.7319 111.88 21.1707C111.911 22.6094 111.559 24.0304 110.862 25.2892C110.205 26.4521 109.244 27.4137 108.081 28.0705C106.885 28.7445 105.532 29.0905 104.16 29.0735ZM104.16 25.6996C104.655 25.7021 105.146 25.6021 105.601 25.406C106.056 25.2098 106.466 24.9218 106.804 24.5599C107.554 23.7999 107.929 22.6702 107.929 21.1707C107.929 19.6713 107.554 18.5415 106.804 17.7816C106.466 17.4217 106.057 17.1348 105.604 16.9388C105.15 16.7427 104.661 16.6416 104.167 16.6416C103.673 16.6416 103.184 16.7427 102.731 16.9388C102.277 17.1348 101.869 17.4217 101.53 17.7816C100.791 18.5416 100.421 19.6714 100.421 21.1707C100.421 22.6706 100.791 23.8003 101.53 24.5599C101.865 24.9223 102.272 25.2109 102.725 25.4072C103.178 25.6034 103.666 25.703 104.16 25.6996Z" fill="white"/>
<path d="M116.044 28.7086V16.8846H113.977V13.6324H116.044V11.8695C116.044 10.0457 116.505 8.74879 117.427 7.97879C118.349 7.20878 119.6 6.82375 121.181 6.82368H122.852V10.1368H121.789C121.12 10.1368 120.644 10.2685 120.36 10.532C120.076 10.7954 119.935 11.2413 119.934 11.8695V13.6324H123.187V16.8846H119.934V28.7086H116.044Z" fill="white"/>
<path d="M132.974 28.7084C131.393 28.7084 130.127 28.3234 129.174 27.5534C128.222 26.7834 127.746 25.4156 127.746 23.45V16.8845H125.162V13.6322H127.746L128.202 9.58943H131.636V13.6322H135.71V16.8844H131.636V23.4804C131.636 24.2099 131.793 24.7114 132.108 24.9849C132.422 25.2584 132.964 25.3952 133.734 25.3953H135.618V28.7084H132.974Z" fill="white"/>
<path d="M142.002 28.7087L137.595 13.6325H141.455L144.069 24.4837L147.109 13.6325H151.425L154.465 24.4837L157.109 13.6325H160.969L156.531 28.7087H152.489L149.267 17.432L146.045 28.7087H142.002Z" fill="white"/>
<path d="M167.866 29.0734C166.769 29.1142 165.676 28.9009 164.675 28.4503C163.907 28.0925 163.262 27.5163 162.82 26.7939C162.414 26.1033 162.204 25.3152 162.213 24.5142C162.197 23.8573 162.338 23.2061 162.623 22.6143C162.908 22.0224 163.33 21.5068 163.854 21.1099C164.948 20.2389 166.589 19.8032 168.778 19.8029H172.608V19.438C172.608 18.4045 172.314 17.6446 171.726 17.1584C171.108 16.6613 170.331 16.4025 169.538 16.4289C168.809 16.412 168.091 16.6073 167.471 16.991C167.182 17.1741 166.935 17.4164 166.746 17.702C166.557 17.9875 166.432 18.3099 166.377 18.6477H162.577C162.658 17.6068 163.044 16.6128 163.687 15.7905C164.341 14.968 165.193 14.3249 166.164 13.9212C167.242 13.4729 168.401 13.2506 169.568 13.2679C171.716 13.2679 173.408 13.8048 174.644 14.8786C175.88 15.953 176.498 17.4728 176.498 19.4381V28.7087H173.185L172.821 26.277C172.373 27.0898 171.73 27.779 170.951 28.283C170.023 28.8443 168.95 29.1192 167.866 29.0734ZM168.748 26.0338C169.235 26.0604 169.723 25.9757 170.173 25.7861C170.623 25.5966 171.025 25.3071 171.346 24.9395C171.984 24.1662 172.389 23.2284 172.516 22.2344H169.203C168.17 22.2344 167.43 22.4219 166.984 22.7968C166.775 22.9607 166.605 23.1707 166.489 23.4105C166.373 23.6503 166.314 23.9134 166.316 24.1798C166.304 24.4455 166.359 24.7098 166.476 24.9488C166.593 25.1877 166.768 25.3935 166.984 25.5475C167.505 25.8936 168.123 26.064 168.748 26.0338Z" fill="white"/>
<path d="M180.208 28.7087V13.6325H183.673L184.038 16.4591C184.569 15.5036 185.338 14.7024 186.272 14.134C187.278 13.5393 188.432 13.2392 189.6 13.2679V17.3709H188.506C187.728 17.3581 186.955 17.4922 186.226 17.7661C185.561 18.0263 185.008 18.5099 184.661 19.1339C184.286 19.7827 184.098 20.6844 184.099 21.8392V28.7087H180.208Z" fill="white"/>
<path d="M199.297 29.0736C197.888 29.1007 196.496 28.7658 195.254 28.1009C194.093 27.4671 193.135 26.519 192.488 25.3653C191.801 24.1194 191.456 22.7144 191.485 21.2922C191.458 19.843 191.798 18.4107 192.473 17.128C193.101 15.9435 194.049 14.9589 195.208 14.286C196.465 13.584 197.888 13.2324 199.327 13.2681C200.697 13.2407 202.05 13.5763 203.248 14.2406C204.361 14.8674 205.281 15.7873 205.908 16.9003C206.551 18.0456 206.882 19.3404 206.865 20.6541C206.865 20.8772 206.86 21.1103 206.85 21.3532C206.84 21.5962 206.824 21.85 206.804 22.1129H195.345C195.357 22.6325 195.472 23.1446 195.683 23.6195C195.894 24.0944 196.198 24.5225 196.576 24.879C197.311 25.546 198.274 25.9051 199.266 25.882C199.968 25.9063 200.661 25.7211 201.257 25.3501C201.78 25.0117 202.196 24.5322 202.458 23.9671H206.409C206.124 24.9223 205.642 25.8074 204.996 26.5659C204.331 27.3509 203.5 27.979 202.564 28.4049C201.537 28.8641 200.422 29.0924 199.297 29.0736ZM199.327 16.4291C198.421 16.4144 197.535 16.6973 196.804 17.2344C196.036 17.8359 195.534 18.7142 195.406 19.6812H202.914C202.903 19.2322 202.801 18.7901 202.613 18.3823C202.424 17.9745 202.154 17.6097 201.819 17.3105C201.128 16.7148 200.239 16.4002 199.327 16.4291Z" fill="white"/>
<path d="M224.736 29.0736C223.316 29.1015 221.907 28.827 220.602 28.2682C219.462 27.7775 218.483 26.9772 217.775 25.9582C217.061 24.8717 216.69 23.5954 216.711 22.2954H220.815C220.834 23.24 221.221 24.1397 221.894 24.8031C222.573 25.4823 223.51 25.8217 224.706 25.8213C225.588 25.8688 226.459 25.6053 227.168 25.0767C227.464 24.8389 227.701 24.535 227.859 24.1893C228.018 23.8436 228.093 23.4657 228.079 23.0858C228.101 22.7082 228.04 22.3305 227.901 21.9789C227.761 21.6272 227.548 21.31 227.274 21.0492C226.647 20.5125 225.918 20.1092 225.131 19.8638C224.239 19.5599 223.287 19.2357 222.274 18.8912C220.632 18.3241 219.381 17.5946 218.52 16.7026C217.658 15.8111 217.228 14.6257 217.228 13.1465C217.177 11.9998 217.491 10.8664 218.125 9.90942C218.763 8.99107 219.641 8.26559 220.663 7.81211C221.845 7.31801 223.114 7.06484 224.395 7.06743C225.677 7.07002 226.945 7.32832 228.125 7.82719C229.155 8.289 230.038 9.02506 230.678 9.95493C231.313 10.9217 231.656 12.0508 231.666 13.2073H227.502C227.481 12.4567 227.171 11.7432 226.636 11.2164C226.329 10.9187 225.964 10.6879 225.564 10.5388C225.164 10.3897 224.737 10.3254 224.31 10.3501C223.546 10.3044 222.789 10.5245 222.167 10.9732C221.879 11.1953 221.65 11.4845 221.499 11.8156C221.348 12.1467 221.28 12.5096 221.301 12.8729C221.286 13.1855 221.337 13.4978 221.453 13.7888C221.568 14.0798 221.744 14.3427 221.97 14.5598C222.502 15.0264 223.122 15.3828 223.794 15.6085C224.563 15.8925 225.445 16.1964 226.438 16.5204C227.436 16.8606 228.402 17.2878 229.326 17.797C230.171 18.2602 230.891 18.9227 231.423 19.7272C231.984 20.6554 232.259 21.7286 232.213 22.8122C232.219 23.9042 231.925 24.9768 231.362 25.9127C230.755 26.9011 229.881 27.6969 228.839 28.2076C227.561 28.8211 226.153 29.1182 224.736 29.0736Z" fill="white"/>
<path d="M237.414 35.3958L240.91 27.7057H239.998L234.131 13.6325H238.356L242.581 24.2405L246.989 13.6325H251.123L241.548 35.3958L237.414 35.3958Z" fill="white"/>
<path d="M259.479 29.2788C258.271 29.3034 257.071 29.0811 255.953 28.6253C255.003 28.2372 254.166 27.6151 253.521 26.8168C252.912 26.0456 252.533 25.1186 252.427 24.1419H256.348C256.481 24.7479 256.832 25.2837 257.335 25.6466C257.939 26.0831 258.673 26.3026 259.418 26.2697C260.268 26.2697 260.892 26.0974 261.287 25.7529C261.468 25.6119 261.615 25.4323 261.717 25.2272C261.82 25.0221 261.875 24.7968 261.88 24.5675C261.901 24.2846 261.829 24.0025 261.675 23.7639C261.522 23.5253 261.295 23.3432 261.028 23.2452C260.258 22.9528 259.465 22.724 258.658 22.5613C258.009 22.4197 257.351 22.2474 256.682 22.0446C256.042 21.8546 255.426 21.5946 254.843 21.2694C254.305 20.9731 253.842 20.5571 253.49 20.0536C253.132 19.5091 252.951 18.8665 252.973 18.2148C252.967 17.5683 253.107 16.9288 253.384 16.3444C253.66 15.76 254.066 15.2459 254.569 14.8409C255.633 13.929 257.128 13.473 259.053 13.4731C260.836 13.4731 262.259 13.8885 263.323 14.7193C263.853 15.1361 264.294 15.6547 264.62 16.2445C264.947 16.8344 265.151 17.4836 265.223 18.1539H261.545C261.322 17.0397 260.481 16.4825 259.023 16.4822C258.43 16.4456 257.84 16.5943 257.336 16.9077C257.156 17.0211 257.007 17.178 256.903 17.3639C256.8 17.5498 256.744 17.7587 256.743 17.9715C256.743 18.4175 257.037 18.7721 257.624 19.0354C258.38 19.3522 259.163 19.5965 259.965 19.7649C261.018 20.0081 261.986 20.2766 262.868 20.5703C263.673 20.8165 264.4 21.2667 264.98 21.8773C265.507 22.4549 265.77 23.2807 265.77 24.3546C265.801 25.2516 265.545 26.135 265.041 26.8775C264.493 27.6607 263.734 28.2721 262.852 28.6404C261.785 29.0884 260.636 29.3059 259.479 29.2788Z" fill="white"/>
<path d="M275.134 28.7084C273.553 28.7084 272.287 28.3234 271.334 27.5534C270.382 26.7834 269.905 25.4156 269.906 23.45V16.8845H267.322V13.6322H269.906L270.362 9.58943H273.796V13.6322H277.869V16.8844H273.796V23.4804C273.796 24.2099 273.953 24.7114 274.267 24.9849C274.582 25.2584 275.124 25.3952 275.893 25.3953H277.778V28.7084H275.134Z" fill="white"/>
<path d="M288.141 29.0736C286.733 29.1007 285.341 28.7658 284.099 28.1009C282.938 27.4671 281.979 26.519 281.333 25.3653C280.646 24.1194 280.3 22.7144 280.33 21.2922C280.303 19.8431 280.643 18.4107 281.317 17.128C281.946 15.9435 282.893 14.959 284.053 14.286C285.31 13.5839 286.733 13.2324 288.172 13.2681C289.542 13.2407 290.894 13.5763 292.093 14.2406C293.206 14.8674 294.126 15.7873 294.752 16.9003C295.396 18.0457 295.726 19.3405 295.71 20.6542C295.71 20.8774 295.705 21.1104 295.695 21.3533C295.684 21.5964 295.669 21.8501 295.649 22.1131H284.19C284.202 22.6327 284.316 23.1448 284.528 23.6196C284.739 24.0945 285.043 24.5226 285.421 24.8792C286.156 25.5461 287.119 25.9052 288.111 25.882C288.813 25.9063 289.506 25.7211 290.102 25.3501C290.625 25.0117 291.041 24.5323 291.303 23.9671H295.254C294.968 24.9223 294.487 25.8074 293.84 26.5659C293.176 27.3509 292.345 27.979 291.409 28.4049C290.382 28.8641 289.266 29.0924 288.141 29.0736ZM288.172 16.4291C287.265 16.4144 286.379 16.6973 285.649 17.2344C284.881 17.8359 284.379 18.7142 284.251 19.6812H291.758C291.748 19.2322 291.646 18.7901 291.457 18.3823C291.269 17.9745 290.999 17.6097 290.664 17.3105C289.973 16.7148 289.084 16.4002 288.172 16.4291Z" fill="white"/>
<path d="M298.994 28.7086V13.6324H302.429L302.763 15.6688C303.253 14.9362 303.916 14.3359 304.693 13.9211C305.55 13.4719 306.507 13.2472 307.475 13.2678C309.805 13.2678 311.456 14.1695 312.429 15.9729C312.982 15.1365 313.741 14.4562 314.633 13.9971C315.565 13.5083 316.604 13.2577 317.657 13.2678C319.623 13.2678 321.132 13.8554 322.186 15.0307C323.239 16.2062 323.766 17.9286 323.767 20.1979V28.7088H319.876V20.5624C319.876 19.2658 319.628 18.2729 319.131 17.5837C318.635 16.8951 317.87 16.5506 316.837 16.5502C316.353 16.5337 315.872 16.6293 315.432 16.8297C314.992 17.0301 314.604 17.3298 314.299 17.7052C313.66 18.4757 313.341 19.5497 313.341 20.9272V28.7086H309.45V20.5624C309.45 19.2658 309.197 18.2729 308.691 17.5837C308.184 16.8951 307.404 16.5506 306.35 16.5502C305.871 16.5359 305.396 16.6328 304.961 16.8332C304.526 17.0335 304.143 17.332 303.842 17.7052C303.204 18.4757 302.885 19.5497 302.885 20.9272V28.7086H298.994Z" fill="white"/>
<path d="M333.705 29.0735C332.498 29.0981 331.298 28.8757 330.18 28.42C329.229 28.0319 328.393 27.4098 327.748 26.6115C327.139 25.8403 326.76 24.9133 326.654 23.9366H330.575C330.708 24.5426 331.059 25.0784 331.562 25.4413C332.166 25.8778 332.9 26.0973 333.644 26.0643C334.495 26.0643 335.118 25.8921 335.514 25.5476C335.695 25.4066 335.842 25.227 335.944 25.0219C336.047 24.8168 336.102 24.5915 336.106 24.3622C336.127 24.0793 336.056 23.7972 335.902 23.5586C335.749 23.32 335.521 23.1379 335.255 23.0398C334.485 22.7475 333.692 22.5187 332.884 22.356C332.236 22.2144 331.577 22.0421 330.909 21.8392C330.269 21.6493 329.653 21.3893 329.07 21.0641C328.532 20.7678 328.069 20.3518 327.717 19.8483C327.358 19.3038 327.178 18.6612 327.2 18.0095C327.194 17.363 327.334 16.7235 327.611 16.1391C327.887 15.5547 328.292 15.0406 328.796 14.6356C329.86 13.7237 331.355 13.2677 333.28 13.2678C335.063 13.2678 336.486 13.6832 337.55 14.514C338.08 14.9307 338.521 15.4493 338.847 16.0392C339.173 16.6291 339.378 17.2783 339.45 17.9486H335.772C335.549 16.8344 334.708 16.2772 333.249 16.2769C332.657 16.2403 332.067 16.389 331.562 16.7024C331.382 16.8158 331.234 16.9727 331.13 17.1586C331.027 17.3445 330.971 17.5534 330.97 17.7662C330.97 18.2122 331.263 18.5668 331.851 18.8301C332.606 19.1469 333.39 19.3911 334.192 19.5596C335.245 19.8028 336.213 20.0713 337.094 20.3649C337.899 20.6112 338.627 21.0614 339.207 21.672C339.733 22.2496 339.997 23.0753 339.997 24.1493C340.027 25.0463 339.772 25.9297 339.268 26.6722C338.72 27.4554 337.961 28.0668 337.079 28.4351C336.012 28.8831 334.862 29.1006 333.705 29.0735Z" fill="white"/>
<path d="M82.7611 58.707C81.8339 58.7288 80.9142 58.5367 80.0733 58.1455C79.3473 57.8036 78.7347 57.2606 78.3081 56.5809C77.8846 55.8798 77.669 55.0729 77.6863 54.254H79.4515C79.4466 54.7832 79.5778 55.3047 79.8325 55.7686C80.0912 56.2347 80.4774 56.6174 80.9459 56.8718C81.5055 57.1629 82.1308 57.3045 82.7612 57.283C83.5553 57.3333 84.3404 57.0907 84.9676 56.601C85.2172 56.3935 85.4171 56.1325 85.5525 55.8374C85.6879 55.5423 85.7553 55.2206 85.7497 54.896C85.773 54.4181 85.6468 53.9449 85.3888 53.542C85.1359 53.1906 84.8022 52.9051 84.416 52.7096C83.9664 52.479 83.4962 52.291 83.0116 52.1479C82.4834 51.9875 81.9318 51.807 81.3568 51.6064C80.4549 51.3398 79.6297 50.8619 78.9497 50.2123C78.4133 49.6176 78.1324 48.8359 78.1676 48.0358C78.1419 47.3338 78.3234 46.6397 78.6893 46.04C79.061 45.4489 79.5932 44.9759 80.2238 44.6761C80.9609 44.3323 81.7676 44.164 82.5807 44.1846C83.3883 44.1653 84.189 44.3371 84.9175 44.6861C85.5509 44.995 86.0857 45.4743 86.4619 46.0701C86.8338 46.6732 87.0318 47.3674 87.0338 48.076H85.2684C85.2644 47.6726 85.1611 47.2765 84.9674 46.9226C84.7573 46.5318 84.4409 46.2084 84.0547 45.9898C83.5849 45.734 83.0549 45.6093 82.5202 45.6288C81.8451 45.5879 81.1782 45.7947 80.6447 46.2106C80.402 46.4124 80.2096 46.6679 80.0826 46.9568C79.9555 47.2457 79.8973 47.5602 79.9126 47.8755C79.8958 48.1291 79.9327 48.3835 80.0209 48.622C80.109 48.8605 80.2465 49.0777 80.4243 49.2594C80.8402 49.6229 81.3293 49.8931 81.8584 50.0519C82.4733 50.2594 83.182 50.4967 83.9845 50.7639C84.6122 50.9854 85.2168 51.2676 85.7898 51.6064C86.3059 51.9086 86.7371 52.3364 87.0433 52.85C87.3658 53.4463 87.5218 54.1184 87.4948 54.7957C87.4951 55.463 87.315 56.1179 86.9734 56.6912C86.5957 57.3144 86.0499 57.8185 85.3985 58.1455C84.5787 58.546 83.673 58.7388 82.7611 58.707Z" fill="white"/>
<path d="M93.7128 58.467C92.941 58.5114 92.1791 58.2764 91.5663 57.8052C91.0449 57.3638 90.7841 56.5681 90.7841 55.418V49.9421H89.0591V48.5179H90.7841L91.0049 46.131H92.4691V48.5179H95.3975V49.9422H92.4691V55.4181C92.4691 56.047 92.5961 56.4716 92.8502 56.6919C93.104 56.9126 93.5519 57.023 94.1941 57.023H95.2372V58.4671L93.7128 58.467Z" fill="white"/>
<path d="M101.174 58.7077C100.657 58.7331 100.14 58.6509 99.6569 58.4662C99.1735 58.2814 98.7337 57.9983 98.3655 57.6346C97.6699 56.9193 97.3223 55.8194 97.3227 54.3349V48.5179H99.0076V54.1545C99.0076 56.2274 99.8567 57.2637 101.555 57.2635C101.96 57.2739 102.363 57.1958 102.736 57.0347C103.108 56.8736 103.441 56.6334 103.711 56.3308C104.279 55.709 104.563 54.8231 104.564 53.6731V48.5179H106.249V58.467H104.724L104.604 56.6818C104.304 57.3023 103.825 57.8191 103.23 58.1662C102.607 58.5311 101.896 58.7184 101.174 58.7077Z" fill="white"/>
<path d="M113.531 58.7076C112.619 58.728 111.719 58.4918 110.934 58.0257C110.196 57.5765 109.599 56.9305 109.209 56.1603C108.79 55.327 108.58 54.4047 108.597 53.4725C108.58 52.5422 108.793 51.6221 109.219 50.7946C109.614 50.033 110.21 49.3946 110.944 48.9491C111.733 48.4868 112.636 48.2541 113.551 48.2772C114.304 48.2625 115.048 48.4348 115.718 48.7787C116.33 49.0974 116.838 49.5846 117.182 50.1827V44.0249H118.867V58.4671H117.342L117.182 56.8223C116.815 57.3475 116.344 57.7914 115.798 58.1262C115.115 58.5357 114.327 58.7377 113.531 58.7076ZM113.712 57.2434C114.336 57.2554 114.951 57.0921 115.487 56.772C116.003 56.4558 116.421 56.0004 116.69 55.4581C116.974 54.8417 117.122 54.1711 117.122 53.4924C117.122 52.8137 116.974 52.1431 116.69 51.5267C116.42 50.9845 116.003 50.5292 115.487 50.2128C114.951 49.893 114.336 49.7297 113.712 49.7414C113.094 49.7313 112.486 49.8947 111.957 50.2128C111.44 50.529 111.023 50.9843 110.753 51.5267C110.469 52.1431 110.322 52.8137 110.322 53.4924C110.322 54.1711 110.469 54.8417 110.753 55.4581C111.023 56.0006 111.44 56.456 111.957 56.772C112.486 57.0904 113.094 57.2537 113.712 57.2434Z" fill="white"/>
<path d="M126.086 58.7075C125.2 58.724 124.326 58.4986 123.559 58.0556C122.824 57.6221 122.223 56.9938 121.823 56.2403C121.385 55.392 121.168 54.4468 121.192 53.4923C121.17 52.5423 121.384 51.6018 121.813 50.7543C122.207 49.9938 122.809 49.3608 123.548 48.9289C124.333 48.4834 125.224 48.2581 126.126 48.2771C127.003 48.2544 127.869 48.4804 128.623 48.9289C129.307 49.344 129.865 49.9367 130.238 50.6439C130.611 51.3482 130.804 52.1338 130.8 52.9308C130.8 53.078 130.796 53.2251 130.79 53.3719C130.783 53.5193 130.78 53.6865 130.78 53.8734H122.856C122.869 54.5403 123.052 55.1929 123.388 55.7692C123.668 56.2338 124.064 56.6176 124.537 56.8831C125.01 57.1486 125.543 57.2866 126.086 57.2835C126.703 57.3056 127.312 57.1375 127.831 56.8021C128.298 56.4828 128.655 56.0275 128.854 55.4982H130.519C130.256 56.4581 129.673 57.2994 128.867 57.883C128.061 58.4666 127.08 58.7574 126.086 58.7075ZM126.086 49.7011C125.311 49.692 124.556 49.9507 123.949 50.4336C123.631 50.695 123.372 51.0202 123.187 51.3881C123.002 51.756 122.896 52.1585 122.877 52.5697H129.135C129.136 52.1738 129.054 51.782 128.895 51.4194C128.737 51.0568 128.504 50.7313 128.212 50.4637C127.625 49.9508 126.865 49.6785 126.086 49.7011Z" fill="white"/>
<path d="M133.025 58.4669V48.5178H134.549L134.65 50.303C134.96 49.6862 135.44 49.1711 136.034 48.8188C136.653 48.453 137.361 48.2655 138.08 48.2771C138.598 48.2524 139.116 48.335 139.601 48.5196C140.086 48.7043 140.528 48.987 140.898 49.3502C141.6 50.0658 141.951 51.1657 141.951 52.6499V58.4669H140.266V52.8304C140.266 50.7578 139.41 49.7214 137.699 49.7213C137.296 49.7123 136.897 49.7912 136.528 49.9522C136.159 50.1133 135.829 50.3528 135.562 50.654C134.994 51.2759 134.71 52.1619 134.71 53.3119V58.4669H133.025Z" fill="white"/>
<path d="M148.433 58.467C147.661 58.5114 146.899 58.2764 146.286 57.8052C145.765 57.3638 145.504 56.5681 145.504 55.418V49.9421H143.779V48.5179H145.504L145.725 46.131H147.189V48.5179H150.117V49.9422H147.189V55.4181C147.189 56.047 147.316 56.4716 147.57 56.6919C147.824 56.9126 148.272 57.023 148.914 57.023H149.957V58.4671L148.433 58.467Z" fill="white"/>
<path d="M162.152 58.7078C161.225 58.7297 160.305 58.5375 159.464 58.1463C158.738 57.8044 158.126 57.2614 157.699 56.5818C157.275 55.8807 157.06 55.0737 157.077 54.2549H158.842C158.837 54.784 158.968 55.3056 159.223 55.7695C159.482 56.2356 159.868 56.6182 160.337 56.8726C160.896 57.1638 161.521 57.3054 162.152 57.2838C162.946 57.3342 163.731 57.0915 164.358 56.6019C164.608 56.3943 164.808 56.1334 164.943 55.8383C165.079 55.5432 165.146 55.2215 165.14 54.8969C165.164 54.419 165.038 53.9458 164.78 53.5429C164.527 53.1915 164.193 52.906 163.807 52.7104C163.357 52.4799 162.887 52.2918 162.402 52.1487C161.874 51.9884 161.322 51.8079 160.747 51.6073C159.846 51.3407 159.02 50.8627 158.34 50.2131C157.804 49.6185 157.523 48.8367 157.558 48.0367C157.533 47.3347 157.714 46.6406 158.08 46.0409C158.452 45.4498 158.984 44.9767 159.615 44.677C160.352 44.3332 161.158 44.1649 161.971 44.1855C162.779 44.1662 163.58 44.338 164.308 44.687C164.942 44.9959 165.476 45.4751 165.853 46.071C166.225 46.6741 166.422 47.3683 166.425 48.0769H164.659C164.655 47.6735 164.552 47.2774 164.358 46.9235C164.148 46.5327 163.832 46.2093 163.446 45.9907C162.976 45.7348 162.446 45.6101 161.911 45.6297C161.236 45.5888 160.569 45.7956 160.036 46.2114C159.793 46.4133 159.6 46.6687 159.473 46.9577C159.346 47.2466 159.288 47.5611 159.303 47.8763C159.287 48.13 159.324 48.3844 159.412 48.6229C159.5 48.8613 159.637 49.0785 159.815 49.2603C160.231 49.6238 160.72 49.894 161.249 50.0528C161.864 50.2602 162.573 50.4976 163.375 50.7648C164.003 50.9863 164.608 51.2685 165.181 51.6073C165.697 51.9095 166.128 52.3373 166.434 52.8509C166.757 53.4471 166.913 54.1192 166.886 54.7966C166.886 55.4638 166.706 56.1188 166.364 56.692C165.987 57.3153 165.441 57.8194 164.789 58.1464C163.97 58.5469 163.064 58.7397 162.152 58.7078Z" fill="white"/>
<path d="M173.704 58.7078C172.82 58.7211 171.948 58.4996 171.177 58.066C170.428 57.6381 169.813 57.0093 169.402 56.2506C168.951 55.4026 168.726 54.4527 168.75 53.4926C168.727 52.5313 168.955 51.5806 169.412 50.7346C169.83 49.9749 170.452 49.3465 171.207 48.9192C171.982 48.4864 172.857 48.265 173.744 48.2774C174.629 48.2643 175.501 48.4858 176.272 48.9192C177.021 49.3475 177.635 49.9762 178.047 50.7346C178.497 51.5826 178.722 52.5325 178.699 53.4926C178.722 54.4539 178.494 55.4047 178.037 56.2506C177.618 57.0102 176.997 57.6387 176.242 58.066C175.467 58.4988 174.592 58.7201 173.704 58.7078ZM173.704 57.2637C174.267 57.2669 174.82 57.1216 175.309 56.8424C175.821 56.5432 176.238 56.1051 176.512 55.5787C176.839 54.9333 176.998 54.2157 176.974 53.4926C176.998 52.7706 176.843 52.0539 176.522 51.4065C176.254 50.8793 175.84 50.4406 175.329 50.1428C174.847 49.8654 174.3 49.7201 173.744 49.7215C173.182 49.7183 172.628 49.8636 172.14 50.1428C171.627 50.4419 171.21 50.88 170.936 51.4065C170.632 52.06 170.475 52.7719 170.475 53.4926C170.475 54.2133 170.632 54.9252 170.936 55.5787C171.208 56.1032 171.622 56.541 172.13 56.8424C172.608 57.1206 173.151 57.266 173.704 57.2637Z" fill="white"/>
<path d="M185.618 58.7079C184.723 58.7218 183.84 58.4968 183.06 58.0561C182.308 57.6248 181.69 56.9928 181.275 56.2307C180.847 55.3816 180.623 54.4438 180.623 53.4927C180.623 52.5416 180.847 51.6038 181.275 50.7547C181.69 49.9928 182.308 49.3608 183.06 48.9293C183.84 48.4886 184.723 48.2636 185.618 48.2775C186.686 48.2434 187.735 48.5683 188.597 49.2002C189.398 49.8027 189.945 50.6825 190.131 51.6674H188.406C188.348 51.3744 188.23 51.0962 188.061 50.8497C187.893 50.6032 187.676 50.3935 187.423 50.2332C186.879 49.8857 186.244 49.7076 185.598 49.7217C185.023 49.718 184.458 49.8735 183.966 50.1708C183.474 50.4682 183.074 50.8959 182.81 51.4066C182.506 52.0601 182.348 52.772 182.348 53.4927C182.348 54.2134 182.506 54.9253 182.81 55.5788C183.085 56.1068 183.502 56.5478 184.013 56.8526C184.493 57.1362 185.041 57.2852 185.598 57.2838C186.244 57.2979 186.879 57.1198 187.423 56.7723C187.677 56.6095 187.896 56.3965 188.065 56.1465C188.233 55.8965 188.35 55.6146 188.406 55.3181H190.131C189.946 56.2956 189.402 57.1686 188.606 57.7653C187.746 58.4085 186.692 58.7408 185.618 58.7079Z" fill="white"/>
<path d="M193.502 46.3116C193.348 46.316 193.195 46.2889 193.052 46.232C192.909 46.1751 192.779 46.0895 192.67 45.9806C192.561 45.8717 192.475 45.7417 192.418 45.5986C192.362 45.4555 192.334 45.3023 192.339 45.1483C192.335 44.9988 192.362 44.8502 192.419 44.712C192.476 44.5738 192.562 44.4491 192.67 44.3458C192.896 44.1393 193.191 44.0249 193.497 44.0249C193.803 44.0249 194.099 44.1393 194.325 44.3458C194.435 44.4476 194.523 44.5718 194.582 44.7102C194.641 44.8486 194.669 44.998 194.666 45.1483C194.67 45.3031 194.642 45.4572 194.583 45.6005C194.524 45.7439 194.436 45.8734 194.325 45.9807C194.217 46.0881 194.088 46.1727 193.947 46.2295C193.806 46.2863 193.655 46.3142 193.502 46.3116ZM192.66 58.4671V48.518H194.345V58.4671L192.66 58.4671Z" fill="white"/>
<path d="M201.746 58.7078C200.86 58.7243 199.987 58.4989 199.219 58.056C198.484 57.6224 197.884 56.9942 197.484 56.2406C197.046 55.3924 196.828 54.4472 196.852 53.4927C196.831 52.5428 197.044 51.6022 197.474 50.7547C197.868 49.9942 198.47 49.3612 199.209 48.9293C199.994 48.4838 200.884 48.2586 201.787 48.2775C202.664 48.2548 203.53 48.4808 204.284 48.9293C204.968 49.3444 205.526 49.9372 205.899 50.6444C206.272 51.3486 206.465 52.1342 206.46 52.9312C206.46 53.0785 206.457 53.2255 206.45 53.3723C206.444 53.5198 206.44 53.6869 206.44 53.8739H198.517C198.53 54.5408 198.713 55.1934 199.048 55.7696C199.328 56.2342 199.724 56.6181 200.197 56.8836C200.67 57.1491 201.204 57.287 201.746 57.284C202.364 57.306 202.973 57.138 203.492 56.8025C203.958 56.4832 204.315 56.028 204.514 55.4987H206.179C205.916 56.4585 205.334 57.2998 204.528 57.8834C203.721 58.467 202.74 58.7577 201.746 58.7078ZM201.746 49.7015C200.971 49.6923 200.217 49.951 199.61 50.4339C199.292 50.6954 199.032 51.0205 198.847 51.3884C198.663 51.7563 198.557 52.1588 198.537 52.57H204.795C204.796 52.1741 204.715 51.7824 204.556 51.4197C204.397 51.0571 204.164 50.7316 203.873 50.464C203.285 49.9511 202.526 49.6788 201.746 49.7015Z" fill="white"/>
<path d="M212.274 58.467C211.503 58.5114 210.741 58.2764 210.128 57.8052C209.606 57.3638 209.346 56.5681 209.346 55.418V49.9421H207.621V48.5179H209.346L209.566 46.131H211.031V48.5179H213.959V49.9422H211.031V55.4181C211.031 56.047 211.158 56.4716 211.412 56.6919C211.666 56.9126 212.113 57.023 212.756 57.023H213.799V58.4671L212.274 58.467Z" fill="white"/>
<path d="M217.191 62.8799L219.658 57.5042H219.076L215.125 48.5179H216.95L220.24 56.2605L223.73 48.5179H225.475L218.956 62.8799L217.191 62.8799Z" fill="white"/>
</svg>
