<svg width="291" height="56" viewBox="0 0 291 56" fill="none" xmlns="http://www.w3.org/2000/svg">
<g clip-path="url(#clip0_267_454)">
<path d="M47.0195 8.08325C52.1586 13.2657 55.0378 20.2786 55.0264 27.5848C55.0149 34.8911 52.1137 41.8948 46.9583 47.0612C41.8031 52.2275 34.8143 55.135 27.5237 55.1465C20.2329 55.158 13.2351 52.2725 8.06364 47.1225L8.02458 47.0834C7.99499 47.0539 7.96623 47.0249 7.93824 46.9953C7.07018 46.0793 6.59711 44.8576 6.62147 43.5945C6.64583 42.3315 7.16566 41.129 8.06839 40.2473C8.97112 39.3657 10.1841 38.8758 11.4445 38.8839C12.7051 38.892 13.9117 39.3973 14.8031 40.2906L14.842 40.3296C18.2031 43.7069 22.7646 45.609 27.5244 45.6181C32.284 45.6271 36.8527 43.7423 40.2267 40.3778C43.6006 37.0132 45.5039 32.4442 45.5183 27.6742C45.5328 22.9044 43.6572 18.3238 40.3037 14.9388C40.283 14.9179 40.2621 14.897 40.2412 14.8762C41.1434 15.7606 42.3573 16.2528 43.6193 16.2458C44.8814 16.2387 46.0898 15.7332 46.9822 14.8389C47.8747 13.9445 48.3791 12.7335 48.386 11.4688C48.3931 10.2041 47.902 8.98757 47.0195 8.08339V8.08325Z" fill="#FFDF00"/>
<path d="M46.9841 8.04533L47.0231 8.08439C47.9047 8.98872 48.3951 10.2049 48.3878 11.4692C48.3804 12.7336 47.876 13.944 46.984 14.838C46.0919 15.732 44.884 16.2375 43.6224 16.2449C42.3608 16.2521 41.1472 15.7608 40.2448 14.8773L40.2057 14.8382C36.8349 11.4758 32.2707 9.59046 27.5147 9.59598C22.7586 9.60149 18.1989 11.4973 14.8358 14.8676C11.4728 18.2379 9.58096 22.8074 9.57548 27.5737C9.57 32.3399 11.4513 36.9137 14.8065 40.2918C13.9152 39.3986 12.7086 38.8933 11.4481 38.8851C10.1876 38.8771 8.97462 39.3668 8.07189 40.2486C7.16916 41.1302 6.64933 42.3327 6.62497 43.5958C6.60061 44.8587 7.07368 46.0805 7.94174 46.9965C2.83142 41.8082 -0.0234865 34.8048 0.000145553 27.5148C0.0237777 20.2248 2.92402 13.2401 8.06788 8.08518C13.2117 2.93031 20.1815 0.0238447 27.456 0.000146061C34.7304 -0.0235525 41.719 2.83745 46.8961 7.95869C46.9254 7.98674 46.9541 8.01568 46.9841 8.04533Z" fill="#24A98B"/>
<path d="M40.2049 14.8371L40.2439 14.8762C43.6005 18.254 45.4831 22.8282 45.4781 27.5953C45.4733 32.3624 43.5814 36.9328 40.2178 40.3036C36.8541 43.6745 32.2934 45.5704 27.5365 45.5752C22.7796 45.5801 18.2151 43.6935 14.8446 40.3296L14.8057 40.2906C11.4528 36.912 9.57373 32.339 9.58026 27.5741C9.5868 22.8092 11.4785 18.2414 14.8406 14.8721C18.2027 11.5028 22.7608 9.60703 27.5155 9.60048C32.2702 9.59392 36.8335 11.4771 40.2049 14.8371Z" fill="white" stroke="black" stroke-width="0.37257" stroke-miterlimit="10"/>
<path d="M40.2429 14.7914L40.282 14.8304C43.6502 18.2058 45.5423 22.7838 45.5423 27.5573C45.5423 32.3307 43.6501 36.9088 40.282 40.2841C36.9138 43.6595 32.3456 45.5557 27.5823 45.5557C22.819 45.5557 18.2508 43.6594 14.8826 40.2841L14.8437 40.245C11.4885 36.8669 9.60722 32.2931 9.6127 27.5269C9.61818 22.7605 11.51 18.1912 14.873 14.8208C18.2361 11.4506 22.7958 9.55472 27.5519 9.54921C32.308 9.54369 36.8721 11.429 40.2429 14.7914Z" fill="black"/>
<path d="M31.8425 17.5814C32.9841 18.0243 34.0251 18.6931 34.9032 19.5479L32.677 22.1604C31.4411 21.0825 29.8635 20.4793 28.2252 20.458C27.5244 20.4202 26.8291 20.5997 26.2335 20.9717C25.9955 21.1358 25.8034 21.3581 25.6753 21.6175C25.5471 21.8769 25.4872 22.1648 25.5012 22.4539C25.4838 22.8465 25.5972 23.2337 25.8234 23.5546C26.1359 23.9096 26.5272 24.186 26.9658 24.3618C27.7678 24.7121 28.5892 25.0158 29.426 25.2716C31.4956 25.9372 33.0187 26.7542 33.9953 27.7225C34.9718 28.6909 35.4597 30.0656 35.4592 31.8465C35.4824 33.0387 35.1456 34.2103 34.4927 35.2073C33.8021 36.2138 32.8358 36.9987 31.7102 37.4674C30.3471 38.035 28.8805 38.3099 27.405 38.2745C25.8979 38.3027 24.4001 38.0334 22.9968 37.4819C21.7759 36.9911 20.6581 36.2741 19.7019 35.3686L22.1328 32.6976C22.8516 33.3249 23.6678 33.8305 24.5491 34.1945C25.4119 34.5335 26.3317 34.7029 27.2584 34.6935C28.2543 34.6935 29.0402 34.4733 29.6161 34.0331C29.8979 33.8205 30.1237 33.5424 30.2743 33.2228C30.4247 32.9032 30.4952 32.5516 30.4797 32.1986C30.4957 31.7508 30.3839 31.3078 30.1574 30.9215C29.874 30.5206 29.4901 30.2018 29.0447 29.9969C28.3086 29.6407 27.5445 29.3461 26.7601 29.1162C24.5142 28.4315 22.918 27.5902 21.9713 26.592C21.4977 26.0854 21.1284 25.4903 20.8847 24.8405C20.6409 24.1908 20.5274 23.4993 20.5507 22.8055C20.5298 21.7001 20.8578 20.6164 21.4881 19.7089C22.1467 18.7918 23.0503 18.0796 24.0949 17.6542C25.2921 17.1585 26.578 16.9138 27.8732 16.9351C29.2245 16.9066 30.5697 17.1255 31.8425 17.5814Z" fill="white"/>
<path d="M73.7222 24.9369C72.5073 24.9609 71.3011 24.7254 70.1839 24.2461C69.2086 23.8251 68.3705 23.1388 67.7645 22.2647C67.1533 21.3329 66.836 20.2382 66.854 19.1231H70.3662C70.3826 19.9333 70.714 20.7051 71.2897 21.274C71.8706 21.8566 72.6727 22.1477 73.6962 22.1474C74.4515 22.1881 75.1972 21.9621 75.8034 21.5087C76.0573 21.3047 76.26 21.0441 76.3955 20.7476C76.531 20.4511 76.5954 20.1269 76.5837 19.8011C76.602 19.4772 76.5497 19.1533 76.4306 18.8516C76.3116 18.55 76.1286 18.278 75.8942 18.0543C75.3582 17.5939 74.7341 17.248 74.0601 17.0375C73.297 16.7769 72.4819 16.4988 71.615 16.2033C70.21 15.717 69.1389 15.0913 68.402 14.3262C67.6646 13.5615 67.296 12.5447 67.2964 11.276C67.2525 10.2924 67.5212 9.3203 68.0638 8.49952C68.6098 7.71185 69.3612 7.08958 70.236 6.70063C71.2479 6.27683 72.334 6.05969 73.4307 6.06191C74.5274 6.06413 75.6126 6.28567 76.6227 6.71357C77.5044 7.10966 78.2603 7.74099 78.8081 8.53855C79.3515 9.36774 79.6449 10.3362 79.6535 11.3282H76.0896C76.0717 10.6844 75.8059 10.0724 75.348 9.62049C75.0858 9.36518 74.7735 9.16728 74.431 9.03937C74.0883 8.91146 73.723 8.85635 73.358 8.87751C72.7034 8.83828 72.0554 9.02709 71.5239 9.41193C71.2772 9.60245 71.0807 9.85049 70.9514 10.1345C70.8222 10.4184 70.7641 10.7298 70.7823 11.0414C70.7691 11.3095 70.8134 11.5773 70.9121 11.8269C71.0108 12.0764 71.1617 12.302 71.3546 12.4883C71.8106 12.8884 72.341 13.1941 72.9155 13.3877C73.5746 13.6312 74.3291 13.892 75.179 14.1698C76.0333 14.4617 76.8603 14.8281 77.6505 15.2649C78.3743 15.6621 78.9905 16.2304 79.4455 16.9203C79.9257 17.7165 80.1609 18.637 80.1217 19.5664C80.127 20.5031 79.875 21.4231 79.3935 22.2258C78.8742 23.0735 78.1254 23.756 77.2342 24.1941C76.14 24.7204 74.9354 24.9751 73.7222 24.9369Z" fill="white"/>
<path d="M89.1485 24.9368C87.9692 24.9547 86.8064 24.6578 85.7794 24.0765C84.7896 23.5105 83.9714 22.686 83.4121 21.6909C82.8151 20.6114 82.5143 19.3925 82.5406 18.1585C82.5144 16.9228 82.82 15.7027 83.4251 14.6258C83.9918 13.6319 84.8137 12.8082 85.8055 12.2404C86.8344 11.6759 87.9885 11.3801 89.1615 11.3801C90.3344 11.3801 91.4886 11.6759 92.5174 12.2404C93.5072 12.8066 94.3252 13.6309 94.8848 14.6258C95.4816 15.7055 95.7823 16.9244 95.7563 18.1585C95.7824 19.3924 95.4816 20.6113 94.8848 21.6909C94.3227 22.6884 93.4997 23.5132 92.5044 24.0765C91.4809 24.6546 90.3232 24.9514 89.1485 24.9368ZM89.1485 22.043C89.5725 22.0451 89.9925 21.9593 90.382 21.7911C90.7714 21.6229 91.1219 21.3759 91.4116 21.0654C92.0532 20.4136 92.3741 19.4446 92.3743 18.1585C92.3744 16.8724 92.0535 15.9034 91.4116 15.2516C91.122 14.9428 90.7723 14.6969 90.3842 14.5287C89.9961 14.3605 89.5777 14.2738 89.1548 14.2738C88.732 14.2738 88.3137 14.3605 87.9254 14.5287C87.5373 14.6969 87.1877 14.9428 86.898 15.2516C86.2647 15.9035 85.9482 16.8725 85.9484 18.1585C85.9484 19.4449 86.265 20.4139 86.898 21.0654C87.1847 21.3763 87.5328 21.6238 87.9203 21.7922C88.3079 21.9605 88.7261 22.046 89.1485 22.043Z" fill="white"/>
<path d="M99.3199 24.6238V14.4822H97.5509V11.6927H99.3199V10.1806C99.3199 8.61633 99.7144 7.50397 100.503 6.84353C101.293 6.18309 102.364 5.85284 103.717 5.85278H105.147V8.69447H104.237C103.665 8.69447 103.257 8.80745 103.014 9.03342C102.772 9.2594 102.65 9.6418 102.65 10.1806V11.6927H105.434V14.4822H102.65V24.6238H99.3199Z" fill="white"/>
<path d="M113.811 24.6237C112.458 24.6237 111.374 24.2935 110.558 23.6331C109.743 22.9727 109.336 21.7995 109.336 20.1136V14.4822H107.124V11.6927H109.336L109.726 8.22516H112.665V11.6927H116.151V14.4822H112.665V20.1397C112.665 20.7654 112.8 21.1956 113.069 21.43C113.338 21.6646 113.802 21.782 114.46 21.7821H116.073V24.6237H113.811Z" fill="white"/>
<path d="M121.538 24.624L117.765 11.6929H121.07L123.306 21.0001L125.908 11.6929H129.603L132.204 21.0001L134.467 11.6929H137.771L133.973 24.624H130.512L127.755 14.9517L124.997 24.624H121.538Z" fill="white"/>
<path d="M143.674 24.9367C142.734 24.9715 141.799 24.7887 140.942 24.4022C140.285 24.0953 139.733 23.6011 139.355 22.9814C139.007 22.3891 138.828 21.7132 138.834 21.0262C138.822 20.4627 138.942 19.9042 139.186 19.3965C139.43 18.8889 139.791 18.4466 140.24 18.1061C141.176 17.3591 142.581 16.9855 144.454 16.9852H147.732V16.6722C147.732 15.7857 147.48 15.1339 146.977 14.717C146.448 14.2906 145.784 14.0687 145.105 14.0913C144.48 14.0767 143.866 14.2443 143.335 14.5734C143.088 14.7304 142.876 14.9382 142.714 15.1832C142.553 15.4281 142.446 15.7046 142.399 15.9943H139.146C139.215 15.1015 139.546 14.2489 140.096 13.5436C140.656 12.8382 141.386 12.2866 142.217 11.9404C143.139 11.5558 144.131 11.3651 145.13 11.38C146.969 11.38 148.416 11.8405 149.475 12.7615C150.532 13.683 151.062 14.9866 151.062 16.6722V24.6238H148.227L147.914 22.5382C147.531 23.2352 146.981 23.8264 146.314 24.2588C145.519 24.74 144.601 24.9759 143.674 24.9367ZM144.428 22.3295C144.845 22.3523 145.263 22.2797 145.648 22.1171C146.033 21.9545 146.376 21.7062 146.652 21.3909C147.197 20.7276 147.544 19.9233 147.653 19.0707H144.818C143.933 19.0707 143.301 19.2315 142.919 19.5531C142.74 19.6937 142.594 19.8738 142.495 20.0795C142.396 20.2851 142.345 20.5109 142.346 20.7393C142.337 20.9672 142.383 21.194 142.484 21.3988C142.584 21.6038 142.733 21.7804 142.919 21.9125C143.365 22.2093 143.893 22.3555 144.428 22.3295Z" fill="white"/>
<path d="M154.236 24.6237V11.6926H157.202L157.514 14.1171C157.969 13.2975 158.628 12.6103 159.427 12.1228C160.288 11.6127 161.275 11.3554 162.276 11.38V14.8991H161.338C160.673 14.8881 160.011 15.0032 159.388 15.2381C158.819 15.4613 158.345 15.876 158.048 16.4112C157.727 16.9677 157.566 17.7411 157.566 18.7316V24.6237H154.236Z" fill="white"/>
<path d="M170.574 24.9368C169.369 24.96 168.178 24.6727 167.114 24.1024C166.121 23.5588 165.301 22.7456 164.747 21.7561C164.16 20.6874 163.864 19.4824 163.889 18.2625C163.866 17.0195 164.157 15.791 164.734 14.6908C165.272 13.6748 166.083 12.8304 167.075 12.2532C168.152 11.651 169.368 11.3495 170.601 11.3801C171.773 11.3567 172.931 11.6445 173.957 12.2143C174.909 12.7519 175.697 13.5409 176.233 14.4955C176.784 15.4778 177.066 16.5884 177.052 17.7152C177.052 17.9065 177.048 18.1065 177.04 18.3148C177.03 18.5233 177.018 18.7409 177.001 18.9664H167.192C167.203 19.4121 167.301 19.8513 167.482 20.2587C167.662 20.666 167.923 21.0331 168.247 21.339C168.875 21.9111 169.699 22.2191 170.548 22.1992C171.149 22.2201 171.743 22.0612 172.252 21.743C172.7 21.4528 173.056 21.0415 173.28 20.5568H176.662C176.418 21.3761 176.005 22.1353 175.452 22.7858C174.884 23.4592 174.173 23.9979 173.371 24.3631C172.492 24.757 171.537 24.9528 170.574 24.9368ZM170.601 14.0914C169.825 14.0788 169.067 14.3214 168.442 14.7821C167.784 15.298 167.355 16.0514 167.245 16.8808H173.67C173.662 16.4957 173.574 16.1164 173.413 15.7666C173.251 15.4169 173.021 15.1039 172.734 14.8474C172.142 14.3364 171.381 14.0665 170.601 14.0914Z" fill="white"/>
<path d="M192.348 24.9367C191.132 24.9607 189.926 24.7252 188.809 24.246C187.834 23.8251 186.996 23.1387 186.39 22.2647C185.778 21.3327 185.461 20.2381 185.479 19.123H188.992C189.008 19.9332 189.339 20.7049 189.915 21.2739C190.495 21.8564 191.298 22.1476 192.321 22.1472C193.076 22.188 193.823 21.962 194.428 21.5086C194.682 21.3046 194.886 21.044 195.021 20.7475C195.157 20.4509 195.221 20.1268 195.209 19.8009C195.227 19.477 195.175 19.1532 195.055 18.8515C194.937 18.5499 194.754 18.2778 194.52 18.0541C193.983 17.5939 193.359 17.2478 192.685 17.0373C191.922 16.7767 191.107 16.4987 190.24 16.2032C188.835 15.7168 187.765 15.0911 187.028 14.326C186.29 13.5613 185.922 12.5447 185.922 11.2759C185.877 10.2923 186.146 9.32018 186.689 8.4994C187.235 7.71171 187.986 7.08946 188.861 6.70051C189.873 6.27671 190.959 6.05956 192.056 6.06178C193.152 6.064 194.238 6.28555 195.248 6.71344C196.13 7.10954 196.886 7.74086 197.433 8.53843C197.977 9.36762 198.27 10.3361 198.279 11.3281H194.715C194.697 10.6842 194.431 10.0723 193.974 9.62037C193.711 9.36504 193.399 9.16715 193.056 9.03924C192.714 8.91134 192.348 8.85622 191.983 8.87739C191.328 8.83815 190.681 9.02696 190.15 9.41181C189.903 9.60233 189.706 9.85036 189.577 10.1343C189.447 10.4183 189.389 10.7296 189.407 11.0412C189.395 11.3094 189.439 11.5772 189.537 11.8268C189.636 12.0764 189.787 12.3019 189.98 12.4881C190.435 12.8883 190.967 13.194 191.541 13.3876C192.2 13.6312 192.954 13.8918 193.804 14.1697C194.658 14.4616 195.486 14.828 196.275 15.2647C197 15.662 197.615 16.2302 198.071 16.9202C198.551 17.7164 198.786 18.6368 198.747 19.5663C198.752 20.5029 198.5 21.4229 198.018 22.2256C197.499 23.0734 196.751 23.756 195.86 24.1939C194.765 24.7202 193.56 24.975 192.348 24.9367Z" fill="white"/>
<path d="M203.198 30.3595L206.19 23.7637H205.41L200.389 11.6929H204.005L207.621 20.7915L211.394 11.6929H214.931L206.737 30.3595H203.198Z" fill="white"/>
<path d="M222.084 25.1128C221.049 25.1339 220.022 24.9432 219.065 24.5523C218.252 24.2194 217.536 23.6857 216.984 23.0011C216.463 22.3396 216.138 21.5445 216.047 20.7069H219.403C219.517 21.2266 219.818 21.6861 220.249 21.9974C220.766 22.3717 221.394 22.5601 222.031 22.5318C222.759 22.5318 223.293 22.3841 223.631 22.0886C223.785 21.9676 223.912 21.8135 223.999 21.6377C224.087 21.4618 224.134 21.2684 224.139 21.0719C224.156 20.8292 224.094 20.5872 223.964 20.3826C223.832 20.1779 223.638 20.0218 223.41 19.9376C222.75 19.6868 222.072 19.4907 221.38 19.351C220.826 19.2296 220.262 19.0819 219.689 18.9079C219.142 18.745 218.615 18.522 218.116 18.2431C217.655 17.9888 217.259 17.632 216.958 17.2002C216.651 16.7332 216.497 16.1821 216.516 15.623C216.51 15.0685 216.631 14.52 216.867 14.0188C217.103 13.5175 217.45 13.0766 217.881 12.7292C218.792 11.947 220.071 11.5559 221.719 11.556C223.244 11.556 224.463 11.9123 225.374 12.6249C225.828 12.9823 226.205 13.4272 226.483 13.9331C226.763 14.4391 226.939 14.9959 227 15.5708H223.852C223.661 14.6152 222.941 14.1372 221.692 14.137C221.185 14.1056 220.681 14.2331 220.249 14.5018C220.095 14.5992 219.968 14.7338 219.879 14.8932C219.79 15.0526 219.743 15.2318 219.742 15.4144C219.742 15.7969 219.993 16.1011 220.496 16.3269C221.142 16.5986 221.814 16.8081 222.499 16.9525C223.4 17.1612 224.229 17.3914 224.984 17.6433C225.673 17.8546 226.296 18.2407 226.791 18.7644C227.243 19.2598 227.468 19.9681 227.468 20.8892C227.495 21.6586 227.275 22.4163 226.844 23.0531C226.375 23.7249 225.725 24.2493 224.97 24.5653C224.057 24.9494 223.074 25.136 222.084 25.1128Z" fill="white"/>
<path d="M235.482 24.6237C234.13 24.6237 233.046 24.2935 232.231 23.6331C231.415 22.9727 231.008 21.7995 231.008 20.1136V14.4822H228.796V11.6927H231.008L231.398 8.22516H234.337V11.6927H237.824V14.4822H234.337V20.1397C234.337 20.7654 234.472 21.1956 234.741 21.43C235.01 21.6646 235.474 21.782 236.133 21.7821H237.745V24.6237H235.482Z" fill="white"/>
<path d="M246.615 24.9368C245.41 24.96 244.219 24.6727 243.155 24.1025C242.162 23.5588 241.341 22.7457 240.788 21.7562C240.2 20.6874 239.904 19.4825 239.93 18.2625C239.906 17.0196 240.197 15.791 240.774 14.6909C241.312 13.675 242.124 12.8304 243.116 12.2532C244.192 11.651 245.409 11.3495 246.641 11.3801C247.814 11.3567 248.972 11.6445 249.996 12.2143C250.95 12.7519 251.737 13.5409 252.274 14.4955C252.824 15.4779 253.107 16.5885 253.093 17.7153C253.093 17.9068 253.089 18.1066 253.079 18.3149C253.071 18.5234 253.058 18.741 253.04 18.9666H243.233C243.243 19.4123 243.341 19.8515 243.523 20.2589C243.703 20.6661 243.962 21.0334 244.286 21.3391C244.916 21.9112 245.74 22.2192 246.589 22.1993C247.19 22.2201 247.783 22.0613 248.293 21.7431C248.741 21.4528 249.097 21.0416 249.321 20.5568H252.703C252.458 21.3761 252.046 22.1353 251.493 22.7858C250.924 23.4592 250.213 23.9979 249.411 24.3632C248.533 24.757 247.578 24.9528 246.615 24.9368ZM246.641 14.0914C245.865 14.0788 245.107 14.3214 244.482 14.7822C243.824 15.2981 243.395 16.0514 243.285 16.8808H249.711C249.702 16.4957 249.614 16.1164 249.453 15.7666C249.292 15.4169 249.061 15.104 248.774 14.8474C248.183 14.3364 247.422 14.0666 246.641 14.0914Z" fill="white"/>
<path d="M255.904 24.6238V11.6927H258.843L259.13 13.4395C259.549 12.811 260.116 12.2961 260.781 11.9403C261.515 11.5551 262.334 11.3623 263.162 11.38C265.156 11.38 266.57 12.1535 267.403 13.7002C267.876 12.9828 268.526 12.3993 269.289 12.0055C270.087 11.5863 270.976 11.3714 271.877 11.38C273.559 11.38 274.852 11.884 275.753 12.8921C276.655 13.9003 277.106 15.3776 277.106 17.3241V24.624H273.776V17.6367C273.776 16.5246 273.564 15.673 273.139 15.0817C272.713 14.4912 272.059 14.1958 271.175 14.1954C270.761 14.1812 270.35 14.2633 269.973 14.4351C269.596 14.607 269.264 14.864 269.002 15.186C268.456 15.8468 268.183 16.7681 268.183 17.9496V24.6238H264.853V17.6367C264.853 16.5246 264.636 15.673 264.203 15.0817C263.769 14.4912 263.101 14.1958 262.199 14.1954C261.79 14.1831 261.382 14.2661 261.01 14.4381C260.638 14.61 260.31 14.866 260.054 15.186C259.507 15.8468 259.234 16.7681 259.234 17.9496V24.6238H255.904Z" fill="white"/>
<path d="M285.612 24.9368C284.579 24.958 283.552 24.7672 282.595 24.3763C281.782 24.0435 281.066 23.5098 280.513 22.8251C279.993 22.1637 279.668 21.3686 279.577 20.5308H282.933C283.047 21.0506 283.348 21.5101 283.779 21.8214C284.295 22.1958 284.924 22.3841 285.561 22.3559C286.289 22.3559 286.822 22.208 287.16 21.9126C287.315 21.7916 287.442 21.6376 287.529 21.4616C287.617 21.2858 287.664 21.0925 287.668 20.8958C287.686 20.6531 287.624 20.4113 287.493 20.2066C287.361 20.002 287.167 19.8458 286.94 19.7617C286.28 19.5108 285.602 19.3147 284.91 19.1751C284.355 19.0537 283.791 18.9059 283.219 18.7319C282.672 18.569 282.143 18.346 281.645 18.067C281.185 17.8129 280.789 17.4561 280.488 17.0242C280.18 16.5572 280.025 16.006 280.045 15.447C280.04 14.8925 280.159 14.3441 280.396 13.8428C280.633 13.3415 280.979 12.9006 281.411 12.5532C282.322 11.771 283.601 11.38 285.249 11.3801C286.774 11.3801 287.993 11.7364 288.903 12.4489C289.357 12.8064 289.734 13.2512 290.013 13.7571C290.293 14.2631 290.468 14.8199 290.529 15.3948H287.381C287.191 14.4391 286.471 13.9612 285.222 13.961C284.715 13.9297 284.21 14.0572 283.779 14.3259C283.625 14.4232 283.497 14.5578 283.409 14.7172C283.32 14.8767 283.273 15.0559 283.272 15.2384C283.272 15.621 283.523 15.925 284.025 16.1508C284.672 16.4226 285.342 16.6321 286.029 16.7766C286.93 16.9852 287.759 17.2155 288.513 17.4674C289.202 17.6786 289.825 18.0648 290.321 18.5884C290.772 19.0839 290.998 19.7921 290.998 20.7133C291.023 21.4826 290.805 22.2404 290.374 22.8772C289.905 23.5489 289.255 24.0734 288.5 24.3893C287.587 24.7735 286.603 24.9601 285.612 24.9368Z" fill="white"/>
<path d="M70.8335 50.3538C70.04 50.3725 69.2527 50.2077 68.533 49.8721C67.9117 49.5789 67.3874 49.1132 67.0222 48.5302C66.6599 47.9289 66.4752 47.2367 66.4901 46.5344H68.0009C67.9967 46.9882 68.109 47.4356 68.327 47.8335C68.5484 48.2332 68.8789 48.5615 69.2799 48.7797C69.7588 49.0294 70.2941 49.1509 70.8336 49.1324C71.5133 49.1755 72.1852 48.9675 72.722 48.5475C72.9357 48.3694 73.1068 48.1456 73.2227 47.8926C73.3385 47.6394 73.3962 47.3635 73.3914 47.0851C73.4114 46.6752 73.3034 46.2693 73.0825 45.9237C72.8661 45.6224 72.5806 45.3774 72.2499 45.2098C71.8651 45.012 71.4627 44.8507 71.0479 44.7279C70.5958 44.5904 70.1237 44.4356 69.6315 44.2635C68.8598 44.0349 68.1535 43.625 67.5715 43.0677C67.1124 42.5578 66.8719 41.8872 66.902 41.201C66.8801 40.5988 67.0354 40.0036 67.3486 39.4892C67.6667 38.9821 68.1222 38.5764 68.662 38.3193C69.2928 38.0244 69.9833 37.8801 70.6791 37.8977C71.3703 37.8812 72.0556 38.0286 72.6791 38.3279C73.2213 38.5929 73.679 39.0039 74.001 39.515C74.3193 40.0323 74.4887 40.6277 74.4905 41.2355H72.9795C72.9761 40.8895 72.8876 40.5497 72.7219 40.2462C72.5421 39.911 72.2712 39.6335 71.9408 39.4461C71.5386 39.2266 71.085 39.1197 70.6274 39.1365C70.0495 39.1013 69.4788 39.2788 69.0221 39.6354C68.8144 39.8085 68.6497 40.0276 68.541 40.2755C68.4322 40.5233 68.3825 40.7931 68.3955 41.0634C68.3812 41.281 68.4127 41.4992 68.4882 41.7037C68.5637 41.9083 68.6814 42.0946 68.8335 42.2505C69.1895 42.5623 69.608 42.794 70.0609 42.9302C70.5872 43.1082 71.1938 43.3117 71.8806 43.541C72.4179 43.7309 72.9353 43.9729 73.4257 44.2635C73.8674 44.5228 74.2365 44.8896 74.4986 45.3302C74.7747 45.8416 74.9081 46.4181 74.885 46.999C74.8853 47.5714 74.7311 48.1331 74.4388 48.6248C74.1155 49.1593 73.6483 49.5917 73.0909 49.8722C72.3892 50.2157 71.614 50.3811 70.8335 50.3538Z" fill="white"/>
<path d="M80.2073 50.1482C79.5468 50.1863 78.8946 49.9847 78.3702 49.5805C77.9239 49.2019 77.7007 48.5195 77.7007 47.533V42.8363H76.2243V41.6147H77.7007L77.8896 39.5674H79.1428V41.6147H81.6492V42.8363H79.1428V47.5331C79.1428 48.0725 79.2515 48.4366 79.4691 48.6256C79.6863 48.815 80.0696 48.9096 80.6192 48.9096H81.512V50.1482H80.2073Z" fill="white"/>
<path d="M86.5924 50.3544C86.15 50.3763 85.7079 50.3058 85.2942 50.1473C84.8804 49.9888 84.504 49.746 84.1888 49.434C83.5935 48.8206 83.296 47.8772 83.2963 46.6039V41.6146H84.7384V46.4492C84.7384 48.2271 85.4651 49.116 86.9185 49.1159C87.2656 49.1248 87.6106 49.0578 87.9293 48.9196C88.2481 48.7814 88.5329 48.5753 88.7642 48.3158C89.2503 47.7825 89.4936 47.0226 89.4939 46.0362V41.6146H90.936V50.1481H89.6312L89.528 48.6168C89.2712 49.1491 88.8616 49.5924 88.3519 49.8901C87.8187 50.203 87.2103 50.3636 86.5924 50.3544Z" fill="white"/>
<path d="M97.1691 50.3545C96.3881 50.3721 95.6177 50.1694 94.9459 49.7696C94.3148 49.3844 93.8035 48.8303 93.4694 48.1697C93.1115 47.4549 92.9318 46.6638 92.9458 45.8643C92.9312 45.0663 93.114 44.2772 93.478 43.5674C93.8162 42.9142 94.3269 42.3666 94.9545 41.9846C95.6304 41.588 96.4034 41.3884 97.1863 41.4082C97.8304 41.3956 98.4675 41.5434 99.0404 41.8383C99.5642 42.1117 99.9991 42.5295 100.294 43.0426V37.761H101.736V50.1483H100.431L100.293 48.7375C99.9796 49.1879 99.5764 49.5686 99.109 49.8558C98.5243 50.207 97.8503 50.3803 97.1691 50.3545ZM97.3237 49.0987C97.8578 49.1089 98.3842 48.9688 98.8429 48.6943C99.2851 48.4231 99.6421 48.0325 99.873 47.5674C100.116 47.0387 100.242 46.4635 100.242 45.8814C100.242 45.2992 100.116 44.724 99.873 44.1954C99.642 43.7303 99.285 43.3397 98.8429 43.0684C98.3842 42.7941 97.8578 42.654 97.3237 42.6641C96.7951 42.6555 96.2746 42.7955 95.8215 43.0684C95.3793 43.3396 95.0223 43.7302 94.7914 44.1954C94.5482 44.724 94.4223 45.2992 94.4223 45.8814C94.4223 46.4635 94.5482 47.0387 94.7914 47.5674C95.0222 48.0327 95.3792 48.4233 95.8215 48.6943C96.2746 48.9674 96.795 49.1075 97.3237 49.0987Z" fill="white"/>
<path d="M107.915 50.3543C107.157 50.3685 106.408 50.1751 105.751 49.7952C105.122 49.4233 104.608 48.8845 104.266 48.2381C103.891 47.5106 103.705 46.6999 103.726 45.8812C103.707 45.0663 103.89 44.2596 104.258 43.5328C104.595 42.8804 105.11 42.3374 105.743 41.9671C106.414 41.5849 107.177 41.3918 107.948 41.4079C108.7 41.3885 109.44 41.5824 110.087 41.9671C110.672 42.3231 111.149 42.8315 111.469 43.4381C111.787 44.0422 111.953 44.716 111.949 45.3995C111.949 45.5258 111.946 45.652 111.94 45.778C111.935 45.9043 111.932 46.0477 111.932 46.2081H105.151C105.161 46.78 105.318 47.3398 105.606 47.8341C105.845 48.2325 106.183 48.5618 106.588 48.7895C106.993 49.0173 107.451 49.1356 107.915 49.133C108.443 49.1519 108.965 49.0077 109.409 48.7201C109.807 48.4461 110.113 48.0557 110.284 47.6017H111.708C111.484 48.425 110.985 49.1465 110.295 49.6471C109.605 50.1476 108.765 50.3972 107.915 50.3544V50.3543ZM107.915 42.6295C107.251 42.6216 106.605 42.8434 106.086 43.2576C105.813 43.482 105.592 43.7608 105.433 44.0763C105.275 44.3919 105.185 44.7371 105.168 45.0899H110.524C110.525 44.7503 110.456 44.4142 110.32 44.1032C110.184 43.7922 109.984 43.513 109.734 43.2835C109.231 42.8436 108.582 42.6099 107.915 42.6295Z" fill="white"/>
<path d="M113.854 50.148V41.6145H115.159L115.244 43.1458C115.51 42.6167 115.921 42.175 116.43 41.8727C116.959 41.559 117.565 41.3981 118.181 41.4081C118.624 41.3869 119.068 41.4577 119.482 41.6161C119.897 41.7745 120.276 42.017 120.592 42.3285C121.193 42.9423 121.494 43.8857 121.494 45.1587V50.148H120.051V45.3135C120.051 43.5358 119.319 42.6468 117.854 42.6467C117.51 42.6391 117.168 42.7067 116.852 42.8448C116.536 42.983 116.255 43.1884 116.026 43.4468C115.54 43.9802 115.296 44.7401 115.296 45.7265V50.148H113.854Z" fill="white"/>
<path d="M127.042 50.1481C126.38 50.1861 125.729 49.9846 125.204 49.5805C124.758 49.2019 124.534 48.5195 124.534 47.533V42.8362H123.058V41.6147H124.534L124.723 39.5674H125.977V41.6147H128.483V42.8363H125.977V47.5331C125.977 48.0724 126.085 48.4366 126.302 48.6255C126.52 48.8149 126.903 48.9096 127.453 48.9096H128.346V50.1482L127.042 50.1481Z" fill="white"/>
<path d="M138.783 50.3545C137.99 50.3732 137.202 50.2084 136.482 49.8729C135.861 49.5796 135.337 49.1139 134.972 48.5309C134.61 47.9296 134.425 47.2374 134.44 46.5351H135.951C135.947 46.989 136.058 47.4363 136.277 47.8342C136.498 48.234 136.828 48.5622 137.23 48.7804C137.708 49.0302 138.244 49.1516 138.783 49.1331C139.463 49.1763 140.134 48.9682 140.671 48.5482C140.885 48.3702 141.056 48.1463 141.172 47.8933C141.288 47.6402 141.346 47.3642 141.341 47.0858C141.361 46.676 141.253 46.27 141.032 45.9244C140.816 45.6231 140.53 45.3781 140.2 45.2105C139.815 45.0127 139.412 44.8514 138.998 44.7287C138.546 44.5911 138.073 44.4363 137.581 44.2643C136.809 44.0356 136.103 43.6257 135.521 43.0685C135.062 42.5585 134.822 41.888 134.851 41.2017C134.83 40.5995 134.985 40.0043 135.298 39.4899C135.617 38.9829 136.072 38.5772 136.612 38.32C137.242 38.0251 137.933 37.8808 138.629 37.8986C139.319 37.882 140.005 38.0294 140.629 38.3287C141.171 38.5936 141.628 39.0046 141.95 39.5157C142.268 40.033 142.438 40.6284 142.44 41.2362H140.929C140.925 40.8902 140.838 40.5504 140.671 40.247C140.492 39.9117 140.221 39.6343 139.89 39.4469C139.488 39.2273 139.035 39.1204 138.577 39.1372C137.999 39.1021 137.428 39.2795 136.971 39.6361C136.764 39.8093 136.599 40.0285 136.491 40.2762C136.382 40.524 136.332 40.7938 136.345 41.0641C136.33 41.2818 136.362 41.5 136.438 41.7045C136.513 41.909 136.631 42.0953 136.783 42.2512C137.139 42.563 137.558 42.7947 138.011 42.9309C138.537 43.1089 139.143 43.3125 139.83 43.5417C140.367 43.7316 140.885 43.9737 141.375 44.2643C141.817 44.5235 142.186 44.8904 142.448 45.3309C142.724 45.8423 142.858 46.4188 142.835 46.9997C142.835 47.5721 142.681 48.1339 142.389 48.6255C142.065 49.1602 141.598 49.5925 141.04 49.8729C140.339 50.2164 139.564 50.3818 138.783 50.3545Z" fill="white"/>
<path d="M148.67 50.3544C147.913 50.3659 147.167 50.1759 146.507 49.804C145.866 49.437 145.34 48.8976 144.988 48.2469C144.602 47.5195 144.41 46.7048 144.43 45.8813C144.41 45.0568 144.605 44.2414 144.996 43.5157C145.355 42.8642 145.887 42.3251 146.532 41.9587C147.195 41.5874 147.945 41.3975 148.704 41.4082C149.461 41.397 150.208 41.5869 150.868 41.9587C151.509 42.3261 152.035 42.8652 152.387 43.5157C152.773 44.2432 152.965 45.0578 152.945 45.8813C152.965 46.7059 152.77 47.5214 152.379 48.2469C152.02 48.8984 151.488 49.4374 150.841 49.804C150.178 50.1752 149.43 50.365 148.67 50.3544ZM148.67 49.1158C149.151 49.1185 149.626 48.994 150.043 48.7545C150.482 48.4979 150.839 48.1221 151.073 47.6706C151.354 47.117 151.489 46.5015 151.469 45.8813C151.489 45.262 151.356 44.6473 151.082 44.0921C150.853 43.6399 150.498 43.2636 150.061 43.0081C149.648 42.7703 149.181 42.6456 148.704 42.6468C148.222 42.644 147.749 42.7687 147.331 43.0081C146.893 43.2647 146.535 43.6405 146.3 44.0921C146.041 44.6525 145.906 45.2632 145.906 45.8813C145.906 46.4994 146.041 47.1101 146.3 47.6706C146.533 48.1205 146.888 48.496 147.322 48.7545C147.731 48.9931 148.197 49.1178 148.67 49.1158Z" fill="white"/>
<path d="M158.867 50.3545C158.101 50.3665 157.345 50.1734 156.678 49.7955C156.034 49.4256 155.505 48.8835 155.149 48.2298C154.784 47.5016 154.592 46.6972 154.592 45.8814C154.592 45.0656 154.784 44.2613 155.149 43.533C155.505 42.8795 156.034 42.3375 156.678 41.9673C157.345 41.5894 158.101 41.3963 158.867 41.4083C159.781 41.379 160.678 41.6576 161.416 42.1997C162.102 42.7165 162.57 43.4711 162.729 44.3158H161.253C161.203 44.0645 161.102 43.8259 160.958 43.6145C160.813 43.403 160.628 43.2232 160.412 43.0856C159.946 42.7876 159.403 42.6349 158.85 42.6469C158.358 42.6438 157.874 42.7771 157.453 43.0322C157.031 43.2872 156.689 43.6541 156.463 44.0922C156.203 44.6527 156.069 45.2633 156.069 45.8814C156.069 46.4995 156.203 47.1102 156.463 47.6708C156.699 48.1235 157.056 48.5018 157.493 48.7632C157.904 49.0065 158.373 49.1343 158.85 49.1331C159.403 49.1452 159.946 48.9925 160.412 48.6944C160.63 48.5547 160.817 48.372 160.961 48.1577C161.105 47.9432 161.205 47.7014 161.253 47.4471H162.729C162.571 48.2855 162.106 49.0342 161.425 49.546C160.688 50.0978 159.786 50.3828 158.867 50.3545Z" fill="white"/>
<path d="M165.615 39.7222C165.483 39.7259 165.352 39.7027 165.23 39.6539C165.108 39.6052 164.996 39.5317 164.903 39.4383C164.809 39.3449 164.737 39.2335 164.688 39.1107C164.639 38.9879 164.615 38.8565 164.62 38.7244C164.616 38.5962 164.64 38.4688 164.688 38.3502C164.738 38.2317 164.81 38.1247 164.903 38.0361C165.096 37.859 165.349 37.7609 165.611 37.7609C165.873 37.7609 166.125 37.859 166.319 38.0361C166.414 38.1234 166.489 38.23 166.54 38.3487C166.59 38.4674 166.614 38.5955 166.611 38.7244C166.614 38.8573 166.591 38.9894 166.541 39.1124C166.49 39.2353 166.415 39.3464 166.319 39.4384C166.226 39.5305 166.117 39.6031 165.995 39.6518C165.875 39.7006 165.746 39.7245 165.615 39.7222ZM164.895 50.1482V41.6146H166.336V50.1482H164.895Z" fill="white"/>
<path d="M172.672 50.3545C171.912 50.3685 171.165 50.1753 170.508 49.7953C169.88 49.4235 169.365 48.8846 169.024 48.2383C168.648 47.5107 168.462 46.7001 168.483 45.8813C168.464 45.0666 168.647 44.2599 169.015 43.5329C169.351 42.8807 169.867 42.3377 170.5 41.9672C171.171 41.5852 171.934 41.3919 172.705 41.4082C173.457 41.3887 174.197 41.5826 174.844 41.9672C175.429 42.3233 175.906 42.8318 176.225 43.4384C176.544 44.0423 176.71 44.7162 176.706 45.3997C176.706 45.5261 176.703 45.6521 176.697 45.7781C176.692 45.9046 176.689 46.048 176.689 46.2082H169.907C169.918 46.7803 170.075 47.3401 170.363 47.8342C170.602 48.2328 170.94 48.562 171.345 48.7897C171.75 49.0174 172.207 49.1358 172.672 49.1331C173.2 49.152 173.721 49.0079 174.165 48.7202C174.564 48.4463 174.87 48.0559 175.041 47.6019H176.465C176.241 48.4252 175.742 49.1468 175.051 49.6473C174.362 50.1479 173.522 50.3974 172.672 50.3547V50.3545ZM172.672 42.6295C172.007 42.6217 171.362 42.8436 170.842 43.2578C170.57 43.482 170.348 43.7609 170.19 44.0764C170.032 44.392 169.942 44.7372 169.925 45.0899H175.281C175.282 44.7504 175.212 44.4143 175.076 44.1034C174.94 43.7923 174.741 43.5132 174.491 43.2836C173.988 42.8437 173.338 42.6101 172.672 42.6295Z" fill="white"/>
<path d="M181.682 50.1481C181.021 50.1861 180.369 49.9846 179.844 49.5805C179.398 49.2019 179.175 48.5195 179.175 47.533V42.8362H177.699V41.6147H179.175L179.365 39.5674H180.617V41.6147H183.123V42.8363H180.617V47.5331C180.617 48.0724 180.726 48.4366 180.944 48.6255C181.161 48.8149 181.544 48.9096 182.093 48.9096H182.986V50.1482L181.682 50.1481Z" fill="white"/>
<path d="M185.89 53.933L188.002 49.3222H187.504L184.122 41.6146H185.683L188.499 48.2555L191.486 41.6146H192.98L187.401 53.933H185.89Z" fill="white"/>
</g>
<defs>
<clipPath id="clip0_267_454">
<rect width="291" height="56" fill="white"/>
</clipPath>
</defs>
</svg>
